<svg width="64" height="64" viewBox="0 0 64 64" fill="none" xmlns="http://www.w3.org/2000/svg">
<g clip-path="url(#clip0_7417_723)">
<path fill-rule="evenodd" clip-rule="evenodd" d="M0 0H64V64H0V0Z" fill="url(#paint0_linear_7417_723)"/>
<path fill-rule="evenodd" clip-rule="evenodd" d="M22.4432 38.6096H28.864V37.0576H22.4432V38.6096ZM47.9776 30.1136C47.8016 27.752 46.624 26.0176 44.7504 25.4128C43.2672 24.9296 41.6176 25.2784 40.3568 26.2704C39.5878 24.8546 38.6099 23.5628 37.456 22.4384C34.2464 19.3744 30.16 18.4272 26.24 19.8432C22.6288 21.1472 18.4304 25.5552 18.4304 29.2832V29.3296C16.072 29.9184 14.4224 32.9696 14.4224 34.6352H16.0272C16.0272 33.432 17.5776 30.7824 19.232 30.7824C19.3357 30.7843 19.4388 30.7657 19.5353 30.7277C19.6319 30.6898 19.7199 30.6331 19.7946 30.561C19.8692 30.4889 19.9288 30.4028 19.9701 30.3077C20.0114 30.2125 20.0335 30.1101 20.0352 30.0064V29.2832C20.0352 26.2976 23.7568 22.3984 26.8032 21.2992C31.3264 19.664 34.7136 22.0032 36.328 23.544C37.3696 24.536 38.76 26.3248 39.3456 27.904C39.448 28.1728 39.6912 28.3664 39.984 28.4096C40.1256 28.4293 40.2699 28.4119 40.4028 28.3592C40.5358 28.3065 40.6527 28.2202 40.7424 28.1088C41.6192 26.9824 43.0208 26.4928 44.2416 26.8848C45.6112 27.328 46.3952 28.736 46.3952 30.7472C46.3952 31.128 46.68 31.4512 47.0672 31.512C49.048 31.832 52.7952 33.56 52.7952 37.832C52.7952 43.1456 47.424 43.2448 47.1984 43.2464H28.864V44.8H47.2C49.6912 44.7952 54.4 43.3344 54.4 37.8336C54.4 32.9584 50.5088 30.7504 47.9776 30.1152V30.1136ZM25.6544 41.7056H36.8912V40.152H25.6544V41.7056ZM20.8384 44.8H25.6544V43.248H20.8384V44.8ZM19.232 41.7056H22.4432V40.152H19.232V41.7056ZM11.2048 38.608H19.232V37.056H11.2048V38.608ZM9.59998 41.7056H17.6272V40.152H9.59998V41.7056ZM12.8112 44.8H17.6272V43.248H12.8112V44.8Z" fill="white"/>
</g>
<defs>
<linearGradient id="paint0_linear_7417_723" x1="0" y1="6400" x2="6400" y2="0" gradientUnits="userSpaceOnUse">
<stop stop-color="#B0084D"/>
<stop offset="1" stop-color="#FF4F8B"/>
</linearGradient>
<clipPath id="clip0_7417_723">
<rect width="64" height="64" fill="white"/>
</clipPath>
</defs>
</svg>
