<svg width="64" height="64" viewBox="0 0 64 64" fill="none" xmlns="http://www.w3.org/2000/svg">
<g clip-path="url(#clip0_7417_719)">
<path fill-rule="evenodd" clip-rule="evenodd" d="M0 0H64V64H0V0Z" fill="url(#paint0_linear_7417_719)"/>
<path fill-rule="evenodd" clip-rule="evenodd" d="M44.208 38.5985C44.208 35.5537 41.68 33.0753 38.5728 33.0753C35.464 33.0753 32.936 35.5537 32.936 38.5985C32.936 41.6449 35.464 44.1216 38.5728 44.1216C41.68 44.1216 44.208 41.6449 44.208 38.5985ZM45.8176 38.5985C45.8176 42.5137 42.5664 45.7008 38.5728 45.7008C34.5776 45.7008 31.3248 42.5137 31.3248 38.5985C31.3248 34.6833 34.5776 31.4977 38.5728 31.4977C42.5664 31.4977 45.8176 34.6833 45.8176 38.5985ZM52.6592 49.1248L47.24 44.3408C46.7776 45.0096 46.232 45.6097 45.6272 46.1537L51.0144 50.9153C51.2588 51.1286 51.5765 51.2385 51.9005 51.2218C52.2245 51.205 52.5292 51.063 52.7504 50.8257C52.8576 50.7088 52.9404 50.5716 52.994 50.4223C53.0475 50.273 53.0707 50.1145 53.0622 49.9561C53.0537 49.7977 53.0137 49.6426 52.9445 49.4998C52.8753 49.3571 52.7783 49.2296 52.6592 49.1248ZM38.5728 47.2784C43.4544 47.2784 47.4288 43.3857 47.4288 38.5985C47.4288 33.8129 43.4544 29.9201 38.5728 29.9201C33.6896 29.9201 29.7152 33.8129 29.7152 38.5985C29.7152 43.3857 33.6896 47.2784 38.5728 47.2784ZM53.7376 47.9537C54.0126 48.1957 54.2365 48.4903 54.3962 48.82C54.5559 49.1497 54.6481 49.5081 54.6675 49.8739C54.6869 50.2398 54.633 50.6058 54.509 50.9506C54.3851 51.2954 54.1935 51.6119 53.9456 51.8816C53.6763 52.1726 53.3495 52.4044 52.986 52.5625C52.6224 52.7206 52.23 52.8015 51.8336 52.8C51.1568 52.8 50.4784 52.5648 49.9376 52.088L44.3472 47.1456C42.6292 48.2657 40.622 48.8607 38.5712 48.8576C32.8016 48.8576 28.1056 44.2545 28.1056 38.5985C28.1056 32.9424 32.8016 28.3425 38.5728 28.3425C44.344 28.3425 49.0384 32.9424 49.0384 38.5985C49.0384 40.1473 48.6768 41.6112 48.0464 42.9296L53.7376 47.9537ZM16.9472 39.3873H24.8832V40.9664H16.9376C16.0464 40.9568 15.088 40.6368 14.08 40.0128C12.4096 38.9984 9.59998 36.6097 9.59998 32.0561C9.59998 26.5489 13.456 24.5265 15.6992 23.8161C15.6818 23.554 15.6732 23.2915 15.6736 23.0288C15.6736 18.5425 18.7808 13.8864 22.8976 12.2048C27.7184 10.2256 32.8224 11.208 36.5472 14.8256C37.7461 16.0032 38.7152 17.3939 39.4048 18.9265C40.3831 18.1127 41.6155 17.6672 42.888 17.6673C45.384 17.6673 48.1984 19.5313 48.6896 23.6081C51.0192 24.1281 56 25.9681 56 32.1201C56 34.7649 55.0928 36.9041 53.3008 38.4753L52.2256 37.3024C53.6624 36.0416 54.3904 34.2977 54.3904 32.1217C54.3904 26.7105 49.7696 25.3649 47.7824 25.0385C47.6767 25.0214 47.5755 24.9833 47.4848 24.9264C47.3941 24.8695 47.3157 24.795 47.2544 24.7073C47.1928 24.6205 47.1497 24.5221 47.1277 24.4181C47.1057 24.3141 47.1052 24.2067 47.1264 24.1025C46.8912 20.7841 44.8256 19.2449 42.8864 19.2449C41.6768 19.2449 40.5408 19.8224 39.7712 20.8288C39.6826 20.9433 39.5654 21.0322 39.4313 21.0867C39.2973 21.1413 39.1513 21.1594 39.008 21.1393C38.8656 21.119 38.7313 21.0608 38.6193 20.9707C38.5072 20.8806 38.4215 20.7619 38.3712 20.6273C37.6784 18.7521 36.6848 17.1777 35.416 15.9473C32.1648 12.7904 27.7168 11.9344 23.5168 13.6592C20.0224 15.0896 17.2848 19.2032 17.2848 23.0288C17.2848 23.4576 17.3104 23.8865 17.3616 24.2993C17.3756 24.4104 17.3654 24.5233 17.3317 24.6302C17.298 24.7371 17.2416 24.8354 17.1664 24.9185C17.0445 25.053 16.8812 25.1431 16.7024 25.1745C14.6272 25.6977 11.2096 27.2865 11.2096 32.0561C11.2096 35.6561 13.2352 37.6432 14.9328 38.6768C15.6896 39.144 16.3664 39.3809 16.9488 39.3873H16.9472Z" fill="white"/>
</g>
<defs>
<linearGradient id="paint0_linear_7417_719" x1="0" y1="6400" x2="6400" y2="0" gradientUnits="userSpaceOnUse">
<stop stop-color="#B0084D"/>
<stop offset="1" stop-color="#FF4F8B"/>
</linearGradient>
<clipPath id="clip0_7417_719">
<rect width="64" height="64" fill="white"/>
</clipPath>
</defs>
</svg>
