<svg width="64" height="64" viewBox="0 0 64 64" fill="none" xmlns="http://www.w3.org/2000/svg">
<g clip-path="url(#clip0_7417_660)">
<path fill-rule="evenodd" clip-rule="evenodd" d="M0 0H64V64H0V0Z" fill="url(#paint0_linear_7417_660)"/>
<path fill-rule="evenodd" clip-rule="evenodd" d="M38.4001 28.7392V26.3008C38.4014 26.087 38.3179 25.8815 38.168 25.7291C38.018 25.5768 37.8138 25.4901 37.6001 25.488H26.4001C25.9601 25.488 25.6001 25.8512 25.6001 26.3008V37.6816C25.6001 38.1296 25.9601 38.4944 26.4001 38.4944H37.6001C38.0401 38.4944 38.4001 38.1312 38.4001 37.6816V28.7392ZM40.0001 23.8608H41.6001V25.488H39.8529C39.9425 25.744 40.0001 26.0144 40.0001 26.3008V28.7392H41.6001V30.3648H40.0001V33.6176H41.6001V35.2432H40.0001V37.6816C40.0001 37.968 39.9425 38.24 39.8529 38.4944H41.6001V40.1216H40.0001V41.7472H38.4001V39.9712C38.1443 40.0677 37.8735 40.1186 37.6001 40.1216H35.2001V41.7472H33.6001V40.1216H30.4001V41.7472H28.8001V40.1216H26.4001C26.1185 40.1216 25.8513 40.0624 25.6001 39.9712V41.7472H24.0001V40.1216H22.4001V38.4944H24.1473C24.0525 38.2337 24.0027 37.9589 24.0001 37.6816V35.2432H22.4001V33.616H24.0001V30.3632H22.4001V28.7376H24.0001V26.2992C24.0001 26.0112 24.0577 25.7408 24.1473 25.4864H22.4001V23.8592H24.0001V22.2336H25.6001V24.0096C25.8513 23.9184 26.1185 23.8592 26.4001 23.8592H28.8001V22.2336H30.4001V23.8592H33.6001V22.2336H35.2001V23.8592H37.6001C37.8817 23.8592 38.1489 23.9184 38.4001 24.0096V22.2336H40.0001V23.8592V23.8608ZM33.6001 50.9376V43.3728H32.0001V50.9376L28.6097 46.8912L27.3905 47.9472L32.8001 54.4L38.2097 47.9472L36.9905 46.8912L33.6001 50.9376ZM14.6817 28.5456L18.6641 31.9904H9.6001V33.6176H18.6641L14.6817 37.0624L15.7185 38.3008L22.0721 32.8048L15.7185 27.3072L14.6817 28.5456ZM54.4001 31.9904H45.3361L49.3185 28.5456L48.2817 27.3072L41.9281 32.8048L48.2817 38.3008L49.3185 37.0624L45.3361 33.6176H54.4001V31.9904ZM28.6097 17.1104L27.3905 16.0544L32.8001 9.59998L38.2097 16.0544L36.9905 17.1104L33.6001 13.0624V20.6096H32.0001V13.064L28.6097 17.1104Z" fill="white"/>
</g>
<defs>
<linearGradient id="paint0_linear_7417_660" x1="0" y1="6400" x2="6400" y2="0" gradientUnits="userSpaceOnUse">
<stop stop-color="#C8511B"/>
<stop offset="1" stop-color="#FF9900"/>
</linearGradient>
<clipPath id="clip0_7417_660">
<rect width="64" height="64" fill="white"/>
</clipPath>
</defs>
</svg>
