<svg width="64" height="64" viewBox="0 0 64 64" fill="none" xmlns="http://www.w3.org/2000/svg">
<g clip-path="url(#clip0_7417_676)">
<path fill-rule="evenodd" clip-rule="evenodd" d="M0 0H64V64H0V0Z" fill="url(#paint0_linear_7417_676)"/>
<path fill-rule="evenodd" clip-rule="evenodd" d="M39.2433 44.8C38.1828 44.7987 37.1661 44.3768 36.4163 43.627C35.6664 42.8771 35.2446 41.8604 35.2433 40.8C35.2433 38.5952 37.0369 36.8 39.2433 36.8C41.4497 36.8 43.2433 38.5952 43.2433 40.8C43.2433 43.0048 41.4497 44.8 39.2433 44.8ZM39.2433 35.2C36.1553 35.2 33.6433 37.712 33.6433 40.8C33.6433 43.888 36.1553 46.4 39.2433 46.4C42.3313 46.4 44.8433 43.888 44.8433 40.8C44.8433 37.712 42.3313 35.2 39.2433 35.2ZM51.3585 51.6768C51.2098 51.842 51.0015 51.9415 50.7794 51.9532C50.5574 51.9649 50.3398 51.8879 50.1745 51.7392L45.2033 47.256C45.6129 46.8768 45.9873 46.4608 46.3185 46.0096L51.2961 50.4928C51.4606 50.6419 51.5595 50.8501 51.5712 51.0719C51.5829 51.2937 51.5064 51.5111 51.3585 51.6768ZM32.0433 40.8C32.0433 36.8304 35.2737 33.6 39.2433 33.6C43.2129 33.6 46.4433 36.8304 46.4433 40.8C46.4433 44.7696 43.2129 48 39.2433 48C37.3344 47.9978 35.5043 47.2386 34.1545 45.8888C32.8047 44.539 32.0454 42.7089 32.0433 40.8ZM52.3681 49.304L47.1617 44.6144C47.7217 43.4592 48.0433 42.168 48.0433 40.8C48.0433 35.9472 44.0945 32 39.2433 32C36.9102 32.0025 34.6733 32.9304 33.0236 34.5802C31.3738 36.23 30.4458 38.4668 30.4433 40.8C30.4433 45.6528 34.3921 49.6 39.2433 49.6C40.8965 49.5997 42.5157 49.1297 43.9121 48.2448L49.1041 52.928C49.5847 53.3603 50.2172 53.5842 50.8628 53.5506C51.5083 53.517 52.1142 53.2286 52.5473 52.7487C52.9781 52.2671 53.2011 51.6347 53.1675 50.9894C53.1339 50.3441 52.8466 49.7383 52.3681 49.304ZM14.3969 35.1008C15.3453 34.8756 16.1841 34.3239 16.7665 33.5424L20.9537 36.6736C20.8561 37.0003 20.8039 37.339 20.7985 37.68C20.7985 39.5344 22.2177 41.192 23.9921 41.5872V52.7648H14.3969V35.1008ZM11.2001 31.1904C11.2001 29.9536 12.3649 28.784 13.5985 28.784C14.8305 28.784 15.9969 29.9536 15.9969 31.1904C15.9969 32.424 14.8305 33.5888 13.5985 33.5888C12.3649 33.5888 11.2001 32.424 11.2001 31.1904ZM24.7969 35.28C26.0289 35.28 27.1953 36.4464 27.1953 37.68C27.1953 38.912 26.0289 40.0784 24.7969 40.0784C23.5633 40.0784 22.3985 38.912 22.3985 37.68C22.3985 36.4464 23.5633 35.28 24.7969 35.28ZM36.0033 20.384C37.2353 20.384 38.4017 21.5504 38.4017 22.784C38.4017 24.016 37.2353 25.1824 36.0033 25.1824C34.7697 25.1824 33.6049 24.016 33.6049 22.784C33.6049 21.5504 34.7697 20.384 36.0033 20.384ZM48.8097 15.7232C50.0417 15.7232 51.2081 16.888 51.2081 18.1216C51.2081 19.3552 50.0417 20.5216 48.8097 20.5216C47.5761 20.5216 46.4097 19.3552 46.4097 18.1216C46.4097 16.888 47.5761 15.7232 48.8097 15.7232ZM25.5921 41.5904C27.3697 41.1984 28.7953 39.5392 28.7953 37.68C28.7953 37.0048 28.5921 36.3664 28.2689 35.7952L35.0641 26.6464C35.1057 26.6576 35.1441 26.6784 35.1889 26.688V30.4H36.7889V26.6976C38.5713 26.3088 40.0017 24.6464 40.0017 22.784C40.0017 22.6864 39.9777 22.5936 39.9697 22.4992L45.1089 19.5616C45.6113 20.7808 46.7121 21.744 48.0097 22.032V33.5952H49.6097V22.032C51.3857 21.6368 52.8081 19.9792 52.8081 18.1216C52.8081 16.264 51.3857 14.6064 49.6097 14.2128V11.2H48.0097V14.2128C46.3137 14.5888 44.9585 16.1184 44.8369 17.8736L39.4913 20.9296C38.9249 19.9072 37.9377 19.12 36.7889 18.8688V11.2H35.1889V18.8784C33.4177 19.2784 32.0049 20.9312 32.0049 22.784C32.0049 24.0304 32.6529 25.1728 33.6097 25.9184L27.1985 34.552C26.7283 34.174 26.1794 33.9061 25.5921 33.768V11.2H23.9921V33.7712C23.0856 33.987 22.2788 34.5029 21.7025 35.2352L17.4769 32.0768C17.5489 31.7888 17.5969 31.4944 17.5969 31.1904C17.5969 29.328 16.1729 27.6672 14.3969 27.2736V11.2H12.7969V27.2752C11.0209 27.6704 9.6001 29.3296 9.6001 31.1904C9.6001 33.048 11.0209 34.704 12.7969 35.0992V54.3648H41.6433V52.7648H25.5921V41.5904Z" fill="white"/>
</g>
<defs>
<linearGradient id="paint0_linear_7417_676" x1="0" y1="6400" x2="6400" y2="0" gradientUnits="userSpaceOnUse">
<stop stop-color="#1B660F"/>
<stop offset="1" stop-color="#6CAE3E"/>
</linearGradient>
<clipPath id="clip0_7417_676">
<rect width="64" height="64" fill="white"/>
</clipPath>
</defs>
</svg>
