<svg width="64" height="64" viewBox="0 0 64 64" fill="none" xmlns="http://www.w3.org/2000/svg">
<g clip-path="url(#clip0_7417_715)">
<path fill-rule="evenodd" clip-rule="evenodd" d="M0 0H64V64H0V0Z" fill="url(#paint0_linear_7417_715)"/>
<path fill-rule="evenodd" clip-rule="evenodd" d="M24 43.1999C17.8256 43.1999 12.8 38.1759 12.8 31.9999C12.8 25.824 17.8256 20.8 24 20.8C30.1743 20.8 35.1999 25.824 35.1999 31.9999C35.1999 38.1759 30.1743 43.1999 24 43.1999ZM46.3999 44.7999C48.1647 44.7999 49.5999 46.2351 49.5999 47.9999C49.5999 49.7647 48.1647 51.1999 46.3999 51.1999C44.6351 51.1999 43.1999 49.7647 43.1999 47.9999C43.1999 46.2351 44.6351 44.7999 46.3999 44.7999ZM46.3999 12.8C48.1647 12.8 49.5999 14.2352 49.5999 16C49.5999 17.7648 48.1647 19.2 46.3999 19.2C44.6351 19.2 43.1999 17.7648 43.1999 16C43.1999 14.2352 44.6351 12.8 46.3999 12.8ZM47.9999 29.6C49.7647 29.6 51.1999 31.0351 51.1999 32.7999C51.1999 34.5647 49.7647 35.9999 47.9999 35.9999C46.2351 35.9999 44.7999 34.5647 44.7999 32.7999C44.7999 31.0351 46.2351 29.6 47.9999 29.6ZM36.6895 33.5999H43.2816C43.4693 34.7164 44.046 35.7304 44.9095 36.4625C45.7731 37.1946 46.8678 37.5975 47.9999 37.5999C50.6463 37.5999 52.7999 35.4463 52.7999 32.7999C52.7999 30.1535 50.6463 28 47.9999 28C46.8678 28.0024 45.7731 28.4053 44.9095 29.1374C44.046 29.8695 43.4693 30.8835 43.2816 31.9999H36.7999C36.7999 29.6176 36.1343 27.392 34.9951 25.48L42.7183 19.0432C43.164 19.5899 43.7253 20.0311 44.3619 20.3348C44.9985 20.6386 45.6946 20.7975 46.3999 20.8C49.0463 20.8 51.1999 18.6464 51.1999 16C51.1999 13.3536 49.0463 11.2 46.3999 11.2C43.7535 11.2 41.5999 13.3536 41.5999 16C41.5999 16.5776 41.7183 17.1232 41.9055 17.6352L34.0895 24.1504C32.8964 22.6106 31.367 21.3641 29.6183 20.5061C27.8696 19.6481 25.9478 19.2014 24 19.2C16.9424 19.2 11.2 24.9424 11.2 31.9999C11.2 39.0575 16.9424 44.7999 24 44.7999C25.9478 44.7985 27.8696 44.3518 29.6183 43.4938C31.367 42.6358 32.8964 41.3893 34.0895 39.8495L41.9055 46.3648C41.7183 46.8768 41.5999 47.4223 41.5999 47.9999C41.5999 50.6463 43.7535 52.7999 46.3999 52.7999C49.0463 52.7999 51.1999 50.6463 51.1999 47.9999C51.1999 45.3535 49.0463 43.1999 46.3999 43.1999C44.9135 43.1999 43.5999 43.8927 42.7183 44.9567L34.9951 38.52C35.8939 37.0147 36.4709 35.3394 36.6895 33.5999Z" fill="white"/>
</g>
<defs>
<linearGradient id="paint0_linear_7417_715" x1="0" y1="6400" x2="6400" y2="0" gradientUnits="userSpaceOnUse">
<stop stop-color="#4D27A8"/>
<stop offset="1" stop-color="#A166FF"/>
</linearGradient>
<clipPath id="clip0_7417_715">
<rect width="64" height="64" fill="white"/>
</clipPath>
</defs>
</svg>
