<svg width="64" height="64" viewBox="0 0 64 64" fill="none" xmlns="http://www.w3.org/2000/svg">
<g clip-path="url(#clip0_7417_747)">
<path fill-rule="evenodd" clip-rule="evenodd" d="M0 0H64V64H0V0Z" fill="url(#paint0_linear_7417_747)"/>
<path fill-rule="evenodd" clip-rule="evenodd" d="M18.9665 46.1664L12.3329 52.8H16.8001V54.4H10.4001C10.1879 54.4 9.98444 54.3157 9.83441 54.1657C9.68438 54.0156 9.6001 53.8121 9.6001 53.6V47.2H11.2001V51.6688L17.8353 45.0352L18.9665 46.1664ZM52.8001 47.2H54.4001V53.6C54.4001 54.0432 54.0433 54.4 53.6001 54.4H47.2001V52.8H51.6689L45.0353 46.1664L46.1665 45.0352L52.8001 51.6688V47.2ZM54.4001 10.4V16.8H52.8001V12.3328L46.1665 18.9664L45.0353 17.8352L51.6689 11.2H47.2001V9.59998H53.6001C53.8123 9.59998 54.0158 9.68426 54.1658 9.83429C54.3158 9.98432 54.4001 10.1878 54.4001 10.4ZM11.2001 16.8H9.6001V10.4C9.6001 10.1878 9.68438 9.98432 9.83441 9.83429C9.98444 9.68426 10.1879 9.59998 10.4001 9.59998H16.8001V11.2H12.0433L18.9537 17.824L17.8481 18.9776L11.2001 12.608V16.8ZM52.3617 31.04C52.3617 28.5472 49.4721 26.08 44.6337 24.4432L45.1457 22.928C50.7489 24.824 53.9617 27.7808 53.9617 31.04C53.9617 34.2992 50.7489 37.2576 45.1457 39.1536L44.6337 37.6368C49.4721 36 52.3617 33.5328 52.3617 31.04ZM12.3793 31.04C12.3793 33.4272 15.0833 35.8288 19.6129 37.4624L19.0689 38.9664C13.8001 37.0672 10.7793 34.1776 10.7793 31.04C10.7793 27.9024 13.8001 25.0128 19.0689 23.112L19.6129 24.6176C15.0833 26.2512 12.3793 28.6528 12.3793 31.04ZM32.0369 25.1504C27.0193 25.1504 24.2113 23.872 24.1697 23.3504C24.2113 22.8288 27.0193 21.5504 32.0369 21.5504C37.0497 21.5504 39.8609 22.8272 39.9041 23.3504C39.8609 23.872 37.0497 25.1504 32.0369 25.1504ZM32.0369 30.8384C26.9457 30.8384 24.1697 29.3568 24.1697 28.5952V25.3472C25.9857 26.2992 29.0801 26.7504 32.0369 26.7504C34.9937 26.7504 38.0881 26.2992 39.9041 25.3472V28.5952C39.9041 29.3568 37.1281 30.8384 32.0369 30.8384ZM32.0369 36.8176C26.9457 36.8176 24.1697 35.3344 24.1697 34.5728V30.824C25.9601 31.888 29.0065 32.4384 32.0369 32.4384C35.0673 32.4384 38.1137 31.888 39.9041 30.824V34.5728C39.9041 35.3344 37.1281 36.8176 32.0369 36.8176ZM32.0369 42.064C26.9457 42.064 24.1697 40.6 24.1697 39.848V36.8016C25.9601 37.8672 29.0065 38.4176 32.0369 38.4176C35.0673 38.4176 38.1137 37.8672 39.9041 36.8016V39.848C39.9041 40.6 37.1281 42.064 32.0369 42.064ZM32.0369 19.9504C27.4769 19.9504 22.5697 21.0144 22.5697 23.3504V39.848C22.5697 42.3536 27.3329 43.664 32.0369 43.664C36.7409 43.664 41.5041 42.3536 41.5041 39.848V23.3504C41.5041 21.0144 36.5969 19.9504 32.0369 19.9504Z" fill="white"/>
</g>
<defs>
<linearGradient id="paint0_linear_7417_747" x1="0" y1="6400" x2="6400" y2="0" gradientUnits="userSpaceOnUse">
<stop stop-color="#2E27AD"/>
<stop offset="1" stop-color="#527FFF"/>
</linearGradient>
<clipPath id="clip0_7417_747">
<rect width="64" height="64" fill="white"/>
</clipPath>
</defs>
</svg>
