<svg width="64" height="64" viewBox="0 0 64 64" fill="none" xmlns="http://www.w3.org/2000/svg">
<g clip-path="url(#clip0_7417_711)">
<path fill-rule="evenodd" clip-rule="evenodd" d="M0 0H64V64H0V0Z" fill="url(#paint0_linear_7417_711)"/>
<path fill-rule="evenodd" clip-rule="evenodd" d="M44.8001 42.3952C44.8001 41.0704 43.7233 39.9952 42.4001 39.9952C41.0769 39.9952 40.0001 41.0704 40.0001 42.3952C40.0001 43.7184 41.0769 44.7952 42.4001 44.7952C43.7233 44.7952 44.8001 43.7184 44.8001 42.3952ZM46.4001 42.3952C46.3988 43.4556 45.977 44.4723 45.2271 45.2222C44.4772 45.9721 43.4605 46.3939 42.4001 46.3952C41.3396 46.3939 40.3229 45.9721 39.573 45.2222C38.8232 44.4723 38.4013 43.4556 38.4001 42.3952C38.4009 41.3344 38.8226 40.3173 39.5725 39.5671C40.3224 38.8169 41.3393 38.3948 42.4001 38.3936C44.6065 38.3936 46.4001 40.1904 46.4001 42.3952ZM24.0001 29.5888C24.0001 28.2656 22.9233 27.1888 21.6001 27.1888C20.2769 27.1888 19.2001 28.2656 19.2001 29.5888C19.2001 30.9136 20.2769 31.9904 21.6001 31.9904C22.9233 31.9904 24.0001 30.912 24.0001 29.5888ZM25.6001 29.5888C25.5996 30.6498 25.1782 31.6673 24.4282 32.4179C23.6783 33.1684 22.6611 33.5907 21.6001 33.592C20.539 33.5907 19.5219 33.1684 18.7719 32.4179C18.0219 31.6673 17.6005 30.6498 17.6001 29.5888C17.6013 28.5283 18.0232 27.5116 18.773 26.7617C19.5229 26.0119 20.5396 25.59 21.6001 25.5888C23.8065 25.5888 25.6001 27.384 25.6001 29.5888ZM32.0001 16.784C32.0001 18.1072 33.0769 19.184 34.4001 19.184C35.7233 19.184 36.8001 18.1072 36.8001 16.784C36.8001 15.4608 35.7233 14.384 34.4001 14.384C33.0769 14.384 32.0001 15.4608 32.0001 16.784ZM30.4001 16.784C30.4009 15.7232 30.8226 14.7061 31.5725 13.9559C32.3224 13.2057 33.3393 12.7836 34.4001 12.7824C36.6065 12.7824 38.4001 14.5776 38.4001 16.784C38.3992 17.8447 37.9776 18.8618 37.2276 19.612C36.4777 20.3622 35.4608 20.7843 34.4001 20.7856C33.3396 20.7843 32.3229 20.3625 31.573 19.6126C30.8232 18.8627 30.4013 17.846 30.4001 16.7856V16.784ZM52.8001 31.9904C52.8001 24.5696 48.8241 17.7024 42.4097 13.9904C41.2561 14.2224 40.1441 14.5408 38.7617 15.0416L38.2177 13.5376C38.868 13.3001 39.526 13.084 40.1905 12.8896C37.6047 11.77 34.8178 11.1897 32.0001 11.184C30.6497 11.184 29.3201 11.3232 28.0209 11.5776C28.9601 12.1264 29.7937 12.6752 30.6049 13.2912L29.6385 14.5664C28.4945 13.6976 27.3073 12.9664 25.7569 12.1504C21.9153 13.3665 18.509 15.671 15.9511 18.7845C13.3931 21.898 11.7933 25.6866 11.3457 29.6912C12.9876 29.3571 14.6561 29.1702 16.3313 29.1328L16.3713 30.7328C14.6386 30.7689 12.9138 30.9774 11.2225 31.3552C11.2161 31.5664 11.2001 31.7824 11.2001 31.992C11.2001 38.928 14.6337 45.32 20.2817 49.1696C19.2785 46.1776 18.7617 43.3488 18.7617 40.5936C18.7617 39.0176 19.0321 37.7248 19.3169 36.3552L19.5153 35.392L21.0849 35.7008L20.8849 36.6832C20.6033 38.0256 20.3617 39.1824 20.3617 40.592C20.3617 43.7152 21.0529 46.9488 22.4449 50.4576C24.8825 51.7342 27.5516 52.5083 30.294 52.7339C33.0364 52.9596 35.7962 52.6322 38.4097 51.7712C39.2129 50.1872 39.8097 48.688 40.3121 46.9568L41.8497 47.4048C41.4849 48.664 41.0657 49.8048 40.5681 50.9408C41.8545 50.3632 43.0705 49.6448 44.2145 48.8128C43.9377 48.1312 43.6545 47.4528 43.3281 46.7968L44.7601 46.0832C45.0337 46.632 45.2609 47.2048 45.5009 47.7696C50.1361 43.8032 52.8001 38.128 52.8001 31.992V31.9904ZM54.4001 31.9904C54.4001 38.9744 51.2289 45.4352 45.6961 49.7168C43.7513 51.2313 41.5649 52.4068 39.2289 53.1936C36.9249 53.9936 34.4913 54.4 32.0001 54.4C28.3201 54.4 24.6657 53.4832 21.4305 51.7456C17.6509 49.726 14.531 46.6633 12.442 42.9217C10.3529 39.1801 9.38258 34.9171 9.64646 30.64C10.1921 21.2848 16.6033 13.192 25.6001 10.512C31.2433 8.81117 37.7425 9.50077 42.9473 12.4448C46.4195 14.3927 49.3106 17.2299 51.3233 20.665C53.3361 24.1 54.3981 28.009 54.4001 31.9904ZM29.8513 20.3552L28.7985 19.1504C27.0065 20.7152 25.6113 22.3776 23.9825 24.888L25.3233 25.7584C26.8673 23.3824 28.1777 21.816 29.8513 20.3552ZM26.8993 32.2448C30.5729 33.5056 33.7777 35.52 36.9873 38.5808L38.0913 37.4256C34.7105 34.1968 31.3185 32.0704 27.4193 30.7312L26.8993 32.2448ZM38.1169 21.32C41.1185 25.8992 42.8097 30.928 43.1409 36.264L41.5441 36.3616C41.2305 31.3088 39.6273 26.544 36.7793 22.1984L38.1169 21.32Z" fill="white"/>
</g>
<defs>
<linearGradient id="paint0_linear_7417_711" x1="0" y1="6400" x2="6400" y2="0" gradientUnits="userSpaceOnUse">
<stop stop-color="#4D27A8"/>
<stop offset="1" stop-color="#A166FF"/>
</linearGradient>
<clipPath id="clip0_7417_711">
<rect width="64" height="64" fill="white"/>
</clipPath>
</defs>
</svg>
