<svg width="64" height="64" viewBox="0 0 64 64" fill="none" xmlns="http://www.w3.org/2000/svg">
<g clip-path="url(#clip0_7417_684)">
<path fill-rule="evenodd" clip-rule="evenodd" d="M0 0H64V64H0V0Z" fill="url(#paint0_linear_7417_684)"/>
<path fill-rule="evenodd" clip-rule="evenodd" d="M48.1183 36.2736L48.4383 34.192C51.1631 35.8176 51.2143 36.5024 51.2095 36.528C51.2031 36.5328 50.7167 36.912 48.1183 36.2736ZM31.8223 30.3008C31.8219 30.7219 31.6547 31.1257 31.3572 31.4237C31.0597 31.7218 30.6563 31.8899 30.2351 31.8912C29.8129 31.8912 29.408 31.7234 29.1094 31.4249C28.8109 31.1263 28.6432 30.7214 28.6432 30.2992C28.6432 29.8769 28.8109 29.472 29.1094 29.1734C29.408 28.8749 29.8129 28.7072 30.2351 28.7072C31.1103 28.7072 31.8223 29.424 31.8223 30.3008ZM44.4127 50.0288C44.4127 50.2256 43.6207 50.5248 42.9247 50.7936L42.2127 51.0656C41.4527 51.368 40.5536 51.6399 39.5424 51.8719C37.0208 52.4575 33.5423 52.808 30.2351 52.808C21.4303 52.808 16.7392 51.1936 16.7328 49.9312L13.2096 21.712C16.248 24.0352 22.4895 25.5232 30.2351 25.5232C37.6431 25.5232 45.2176 24.088 48.7696 21.568L46.5839 35.84C41.9903 34.4416 36.3567 31.744 33.5727 30.4032L33.4048 30.3232L33.4079 30.2992C33.4079 28.5424 31.9839 27.1152 30.2351 27.1152C29.3924 27.1173 28.5849 27.4538 27.99 28.0507C27.3951 28.6477 27.0615 29.4564 27.0623 30.2992C27.0623 32.0544 28.4863 33.4832 30.2351 33.4832C31.4079 33.4832 32.4224 32.832 32.9712 31.88C35.8608 33.2688 41.6271 36.0256 46.3407 37.4288L44.4127 50.0288ZM30.2368 12.792C40.9184 12.792 49.2079 15.768 49.2671 18.336L49.2287 18.5728C48.7967 21.0992 40.6656 23.9328 30.2368 23.9328C20.016 23.9328 13.1008 21.1728 12.8128 18.5328L12.7888 18.3408C12.8256 15.656 19.8239 12.792 30.2351 12.792H30.2368ZM48.6976 32.5008L50.8479 18.4848C50.8495 18.4432 50.8575 18.4048 50.8575 18.3632C50.8575 13.8784 40.3727 11.2 30.2351 11.2C19.2047 11.2 11.2 14.2128 11.2 18.3632L11.2048 18.4608L15.1536 50.0288C15.1536 54.1888 27.7167 54.4 30.2351 54.4C33.6543 54.4 37.2656 54.0352 39.8991 53.424C40.8849 53.2038 41.8529 52.9108 42.7951 52.5472L43.4864 52.28C44.8368 51.7664 45.9983 51.3232 45.9887 50.1504L47.8767 37.856C48.9247 38.1088 49.7919 38.24 50.4847 38.24C51.4127 38.2384 52.0415 38.0112 52.4207 37.5552C52.5764 37.3744 52.6888 37.1606 52.7495 36.93C52.8102 36.6993 52.8176 36.4579 52.7711 36.224C52.5679 35.1344 51.2944 33.976 48.6976 32.5008Z" fill="white"/>
</g>
<defs>
<linearGradient id="paint0_linear_7417_684" x1="0" y1="6400" x2="6400" y2="0" gradientUnits="userSpaceOnUse">
<stop stop-color="#1B660F"/>
<stop offset="1" stop-color="#6CAE3E"/>
</linearGradient>
<clipPath id="clip0_7417_684">
<rect width="64" height="64" fill="white"/>
</clipPath>
</defs>
</svg>
