<svg width="64" height="64" viewBox="0 0 64 64" fill="none" xmlns="http://www.w3.org/2000/svg">
<g clip-path="url(#clip0_7417_755)">
<path fill-rule="evenodd" clip-rule="evenodd" d="M0 0H64V64H0V0Z" fill="url(#paint0_linear_7417_755)"/>
<path fill-rule="evenodd" clip-rule="evenodd" d="M43.2001 31.9713H48.0001V30.3681H43.2001V31.9713ZM22.4001 41.5857H27.2001V39.9825H22.4001V41.5857ZM14.4001 41.5857H19.2001V39.9825H14.4001V41.5857ZM14.4001 36.7777H24.0001V35.1761H14.4001V36.7777ZM14.4001 27.1633H22.4001V25.5617H14.4001V27.1633ZM14.4001 31.9713H40.0001V30.3681H14.4001V31.9713ZM30.3489 49.5969H11.2001V22.3569H30.3489V27.1905H31.9489V21.5553C31.9489 21.3431 31.8646 21.1396 31.7146 20.9896C31.5646 20.8395 31.3611 20.7553 31.1489 20.7553H10.4001C10.1879 20.7553 9.98444 20.8395 9.83441 20.9896C9.68438 21.1396 9.6001 21.3431 9.6001 21.5553V50.4001C9.59989 50.5052 9.62043 50.6094 9.66054 50.7067C9.70065 50.8039 9.75954 50.8923 9.83385 50.9668C9.90815 51.0412 9.99642 51.1003 10.0936 51.1406C10.1907 51.1809 10.2949 51.2017 10.4001 51.2017H31.1489C31.3611 51.2017 31.5646 51.1174 31.7146 50.9673C31.8646 50.8173 31.9489 50.6138 31.9489 50.4017V35.2049H30.3489V49.5985V49.5969ZM54.4001 29.5681C54.4001 36.6961 48.0641 36.7777 48.0001 36.7777H35.2001V35.1761H48.0001C48.4881 35.1713 52.8001 34.9809 52.8001 29.5681C52.8001 25.0113 48.6897 24.0881 47.8673 23.9473C47.6694 23.9138 47.4914 23.8073 47.3684 23.6487C47.2454 23.4902 47.1865 23.2912 47.2033 23.0913L47.2081 23.0433C47.1617 20.4721 45.5841 19.6673 44.9009 19.4433C43.6225 19.0145 42.2017 19.4241 41.4481 20.4321C41.3615 20.5478 41.2451 20.6379 41.1114 20.6928C40.9777 20.7476 40.8316 20.7653 40.6887 20.7438C40.5457 20.7223 40.4113 20.6624 40.2996 20.5707C40.188 20.4789 40.1032 20.3585 40.0545 20.2225C39.5569 18.8305 38.8353 17.9281 37.8337 16.9233C35.3233 14.4289 31.9281 13.7441 28.7409 15.0833C27.0705 15.7873 25.6113 17.3841 24.7377 19.4625L23.2625 18.8417C24.2961 16.3793 26.0673 14.4721 28.1201 13.6065C31.9265 12.0033 35.9777 12.8209 38.9633 15.7889C39.8177 16.6465 40.5281 17.4801 41.0801 18.5633C42.2785 17.6801 43.8833 17.4161 45.4065 17.9201C47.3521 18.5681 48.5825 20.2577 48.7809 22.5041C51.5041 23.1921 54.4001 25.3713 54.4001 29.5681Z" fill="white"/>
</g>
<defs>
<linearGradient id="paint0_linear_7417_755" x1="0" y1="6400" x2="6400" y2="0" gradientUnits="userSpaceOnUse">
<stop stop-color="#B0084D"/>
<stop offset="1" stop-color="#FF4F8B"/>
</linearGradient>
<clipPath id="clip0_7417_755">
<rect width="64" height="64" fill="white"/>
</clipPath>
</defs>
</svg>
