<svg width="64" height="64" viewBox="0 0 64 64" fill="none" xmlns="http://www.w3.org/2000/svg">
<g clip-path="url(#clip0_7417_759)">
<path fill-rule="evenodd" clip-rule="evenodd" d="M0 0H64V64H0V0Z" fill="url(#paint0_linear_7417_759)"/>
<path fill-rule="evenodd" clip-rule="evenodd" d="M52.3424 47.0144L53.9776 48.6336L52.84 49.7584L50.8944 47.832H47.712L49.2752 50.5168L51.9711 51.2672L51.5344 52.8016L49.3488 52.1904L48.752 54.4L47.1968 53.9872L47.9072 51.36L46.3184 48.6288L44.7504 51.3104L45.4416 53.9984L43.8832 54.3904L43.3248 52.2112L41.0944 52.8032L40.6768 51.2656L43.3296 50.5616L44.9248 47.832H41.7936L39.792 49.7648L38.6672 48.6256L40.2944 47.0544L38.6624 45.4384L39.7984 44.312L41.7424 46.2384H44.9264L43.3552 43.552L40.6672 42.8016L41.104 41.2704L43.288 41.8784L43.8848 39.6704L45.44 40.0816L44.728 42.72L46.3184 45.4432L47.8848 42.7536L47.1952 40.072L48.7536 39.6784L49.3136 41.8592L51.5456 41.2672L51.9616 42.8048L49.3008 43.5104L47.712 46.2384H50.8432L52.8464 44.3056L53.9696 45.4464L52.3424 47.0144ZM49.4176 34.208L49.72 31.9968C52.7216 33.7536 52.792 34.5088 52.792 34.5088C52.7856 34.512 52.2608 34.92 49.4176 34.208ZM31.5072 11.192C42.1232 11.192 50.128 14.44 50.216 16.568L50.1904 16.7824C50.1904 16.7872 50.184 16.792 50.1824 16.7984C49.6256 18.944 41.8192 21.3344 31.512 21.3344C21.224 21.3344 13.4224 18.9504 12.8352 16.8064L12.8032 16.6032C12.8032 14.4752 20.8336 11.192 31.5072 11.192ZM31.1824 27.8896C31.1824 27.712 31.3296 27.5664 31.5088 27.5664C31.6896 27.5664 31.8352 27.7104 31.8352 27.8896C31.8352 28.2464 31.1824 28.2464 31.1824 27.8896ZM49.9552 30.2864L51.7552 17.1232L51.7664 17.1024L51.8176 16.7056C51.8222 16.6716 51.8243 16.6374 51.824 16.6032C51.824 12.4752 41.1168 9.59998 31.5072 9.59998C21.8976 9.59998 11.1936 12.4768 11.2 16.7088L11.2576 17.0928V17.104L15.616 49.1776C15.616 52.8336 25.3664 54.1952 31.5104 54.1952C33.6 54.1952 35.696 54.0624 37.7456 53.8032L37.5424 52.2224C35.5584 52.4752 33.5312 52.6016 31.5104 52.6016C22.6464 52.6016 17.224 50.3856 17.216 49.072L13.1936 19.4336C13.2496 19.4704 13.3152 19.5008 13.3744 19.5376C13.5056 19.6176 13.6432 19.6976 13.784 19.7776C13.9248 19.8528 14.0736 19.928 14.224 20.0016C14.3808 20.08 14.536 20.16 14.704 20.2352C14.832 20.2912 14.9696 20.344 15.1024 20.4C15.4704 20.552 15.8624 20.7008 16.2736 20.8416C16.408 20.8864 16.5392 20.9328 16.68 20.9776C17.0587 21.0989 17.4401 21.2114 17.824 21.3152C18.1639 21.408 18.5053 21.4954 18.848 21.5776C19.8832 21.8256 20.9872 22.0384 22.1376 22.2208L22.3888 22.2608C22.76 22.3152 23.1344 22.368 23.5152 22.4208L23.656 22.4368C24.8992 22.5952 26.1744 22.7152 27.4592 22.7968L27.528 22.8016C27.9424 22.8288 28.3568 22.8496 28.7744 22.8656L28.9424 22.8752C29.8016 22.9104 30.6608 22.9328 31.5072 22.9328C32.4366 22.9308 33.3659 22.9084 34.2944 22.8656C34.7667 22.8456 35.2387 22.8194 35.7104 22.7872C37.0519 22.6982 38.3903 22.5654 39.7232 22.3888C39.9248 22.3616 40.1264 22.3312 40.3264 22.3024C40.6992 22.2496 41.0656 22.1904 41.4304 22.1296L41.72 22.0816C45.0752 21.4944 47.9936 20.6096 49.8176 19.44L47.8544 33.776C42.9392 32.2784 36.184 29.2096 33.4384 27.9232C33.4384 27.912 33.4448 27.9024 33.4448 27.8912C33.4448 26.8352 32.576 25.9744 31.5088 25.9744C30.4432 25.9744 29.5744 26.8336 29.5744 27.8896C29.5744 28.9472 30.4432 29.8064 31.5104 29.8064C31.9744 29.8064 32.3856 29.6208 32.72 29.3488C35.952 30.8624 42.6752 33.8992 47.6352 35.3728L47.4816 36.5024L49.0736 36.7168L49.1984 35.8C50.3456 36.08 51.288 36.2256 52.032 36.2256C52.984 36.2256 53.6288 35.9968 54.0208 35.5344C54.1764 35.3553 54.289 35.1429 54.3497 34.9135C54.4105 34.6841 54.4178 34.4438 54.3711 34.2112C54.1567 33.0816 52.7792 31.8624 49.9552 30.2864Z" fill="white"/>
</g>
<defs>
<linearGradient id="paint0_linear_7417_759" x1="0" y1="6400" x2="6400" y2="0" gradientUnits="userSpaceOnUse">
<stop stop-color="#1B660F"/>
<stop offset="1" stop-color="#6CAE3E"/>
</linearGradient>
<clipPath id="clip0_7417_759">
<rect width="64" height="64" fill="white"/>
</clipPath>
</defs>
</svg>
