<svg width="64" height="64" viewBox="0 0 64 64" fill="none" xmlns="http://www.w3.org/2000/svg">
<g clip-path="url(#clip0_7417_743)">
<path fill-rule="evenodd" clip-rule="evenodd" d="M0 0H64V64H0V0Z" fill="url(#paint0_linear_7417_743)"/>
<path fill-rule="evenodd" clip-rule="evenodd" d="M26 18.662L31 16.547V33.943C26.146 33.388 26 28.818 26 28.768V18.662ZM38 28.768C38 28.818 37.854 33.388 33 33.943V16.547L38 18.662V28.768ZM32 36C38.563 36 40 30.781 40 28.77V18C40.0001 17.8036 39.9423 17.6116 39.8338 17.448C39.7253 17.2843 39.5709 17.1563 39.39 17.08L32.39 14.118C32.2665 14.066 32.1339 14.0392 32 14.0392C31.8661 14.0392 31.7335 14.066 31.61 14.118L24.61 17.08C24.4291 17.1563 24.2747 17.2843 24.1662 17.448C24.0577 17.6116 23.9999 17.8036 24 18V28.77C24 30.781 25.438 36 32 36ZM22 15.773L32 12.066L42 15.773V27.961C42 31.711 40.701 38 32 38C22.482 38 22 29.638 22 27.962V15.773ZM32 40C43.135 40 44 30.786 44 27.962V15.078C44.0001 14.8738 43.9377 14.6744 43.8211 14.5067C43.7046 14.339 43.5395 14.2111 43.348 14.14L32.348 10.062C32.1234 9.97901 31.8766 9.97901 31.652 10.062L20.652 14.14C20.4605 14.2111 20.2954 14.339 20.1789 14.5067C20.0623 14.6744 19.9999 14.8738 20 15.078V27.961C20 29.193 20.337 40 32 40ZM49 46C47.897 46 47 45.103 47 44C47 42.897 47.897 42 49 42C50.103 42 51 42.897 51 44C51 45.103 50.103 46 49 46ZM34 50C34 51.103 33.103 52 32 52C30.897 52 30 51.103 30 50C30 48.897 30.897 48 32 48C33.103 48 34 48.897 34 50ZM15 46C13.897 46 13 45.103 13 44C13 42.897 13.897 42 15 42C16.103 42 17 42.897 17 44C17 45.103 16.103 46 15 46ZM49 40C48.003 40 47.101 40.38 46.399 40.986L44.727 39.312C47.227 37.257 49.353 34.598 50.898 31.44L49.102 30.56C45.646 37.616 39.093 42 32 42C24.641 42 17.196 37.296 13.898 30.56L12.102 31.44C13.59 34.48 15.792 37.104 18.422 39.165L17.02 40.567C16.4098 40.2001 15.712 40.0042 15 40C12.794 40 11 41.795 11 44C11 46.206 12.794 48 15 48C17.206 48 19 46.206 19 44C19 43.261 18.784 42.576 18.434 41.981L20.067 40.348C23.336 42.478 27.122 43.77 31 43.962V46.142C29.279 46.59 28 48.142 28 50C28 52.206 29.794 54 32 54C34.206 54 36 52.206 36 50C36 48.142 34.721 46.59 33 46.142V43.962C36.625 43.773 40.09 42.57 43.112 40.527L45.247 42.662C45.097 43.082 45 43.529 45 44C45 46.206 46.794 48 49 48C51.206 48 53 46.206 53 44C53 41.795 51.206 40 49 40Z" fill="white"/>
</g>
<defs>
<linearGradient id="paint0_linear_7417_743" x1="0" y1="6400" x2="6400" y2="0" gradientUnits="userSpaceOnUse">
<stop stop-color="#B0084D"/>
<stop offset="1" stop-color="#FF4F8B"/>
</linearGradient>
<clipPath id="clip0_7417_743">
<rect width="64" height="64" fill="white"/>
</clipPath>
</defs>
</svg>
