<svg width="64" height="64" viewBox="0 0 64 64" fill="none" xmlns="http://www.w3.org/2000/svg">
<g clip-path="url(#clip0_7417_739)">
<path fill-rule="evenodd" clip-rule="evenodd" d="M0 0H64V64H0V0Z" fill="url(#paint0_linear_7417_739)"/>
<path fill-rule="evenodd" clip-rule="evenodd" d="M32.0001 9.59998C19.6497 9.59998 9.6001 19.656 9.6001 32.016C9.6001 42.0352 16.7601 50.8816 27.0129 53.5296L27.4129 51.9824C17.8641 49.5168 11.1953 41.3072 11.1953 32.016C11.1953 20.5376 20.5281 11.1968 32.0001 11.1968C43.4721 11.1968 52.8049 20.5376 52.8049 32.016C52.8049 41.8512 47.0641 49.6896 38.1841 51.9824L38.5825 53.5296C48.1905 51.0496 54.4001 42.6032 54.4001 32.016C54.4001 19.656 44.3505 9.59998 32.0001 9.59998ZM25.6513 22.4192H33.5953V20.8224H25.6513V22.4192ZM25.6513 36.888H35.1921V35.2896H25.6513V36.888ZM25.6513 31.9568H32.0001V30.36H25.6513V31.9568ZM25.6513 27.2304H39.9041V25.6336H25.6513V27.2304ZM41.6241 23.8976H37.4353C37.2235 23.8976 37.0205 23.8135 36.8707 23.6637C36.721 23.514 36.6369 23.3109 36.6369 23.0992V17.6752H23.9089V40.096H41.6241V23.8976ZM38.2321 22.3008H40.7601L38.2321 19.1488V22.3008ZM42.4209 41.6928H23.1105C23.0055 41.693 22.9014 41.6724 22.8043 41.6323C22.7073 41.5921 22.6191 41.5332 22.5449 41.4588C22.4707 41.3845 22.4119 41.2962 22.372 41.1991C22.332 41.1019 22.3117 40.9978 22.3121 40.8928V16.8768C22.3121 16.4352 22.6689 16.0784 23.1121 16.0784H37.4353C37.6705 16.0784 37.9025 16.184 38.0577 16.3776L43.0433 22.6C43.1601 22.744 43.2001 22.92 43.2001 23.0992H43.2193V40.896C43.2195 41.0009 43.199 41.1048 43.159 41.2018C43.1189 41.2987 43.0601 41.3868 42.9859 41.461C42.9117 41.5352 42.8236 41.594 42.7267 41.634C42.6297 41.6741 42.5258 41.693 42.4209 41.6928ZM38.2785 47.6256L33.4017 54.0816C33.3278 54.1796 33.2324 54.2592 33.1228 54.3145C33.0132 54.3697 32.8924 54.3989 32.7697 54.4H32.7649C32.6431 54.3996 32.523 54.3715 32.4138 54.3177C32.3045 54.2639 32.209 54.1859 32.1345 54.0896L27.1329 47.6336C27.0423 47.5153 26.9866 47.3741 26.9719 47.2258C26.9573 47.0775 26.9843 46.9281 27.05 46.7944C27.1157 46.6607 27.2174 46.548 27.3437 46.469C27.4701 46.3899 27.6159 46.3478 27.7649 46.3472H30.3457V43.1744H31.9409V47.1456C31.9409 47.3573 31.8568 47.5604 31.7071 47.7101C31.5573 47.8599 31.3542 47.944 31.1425 47.944H29.3921L32.7585 52.288L36.0385 47.944H34.2961C34.1911 47.944 34.0872 47.9233 33.9902 47.883C33.8932 47.8428 33.8051 47.7839 33.731 47.7096C33.6568 47.6353 33.598 47.5471 33.558 47.45C33.518 47.3529 33.4975 47.249 33.4977 47.144V43.1744H35.0945V46.3472H37.6417C37.9457 46.3472 38.2209 46.5184 38.3553 46.7888C38.4221 46.9215 38.4503 47.0702 38.4367 47.2182C38.4232 47.3661 38.3683 47.5073 38.2785 47.6256Z" fill="white"/>
</g>
<defs>
<linearGradient id="paint0_linear_7417_739" x1="0" y1="6400" x2="6400" y2="0" gradientUnits="userSpaceOnUse">
<stop stop-color="#BD0816"/>
<stop offset="1" stop-color="#FF5252"/>
</linearGradient>
<clipPath id="clip0_7417_739">
<rect width="64" height="64" fill="white"/>
</clipPath>
</defs>
</svg>
