<svg width="64" height="64" viewBox="0 0 64 64" fill="none" xmlns="http://www.w3.org/2000/svg">
<g clip-path="url(#clip0_7417_751)">
<path fill-rule="evenodd" clip-rule="evenodd" d="M0 0H64V64H0V0Z" fill="url(#paint0_linear_7417_751)"/>
<path fill-rule="evenodd" clip-rule="evenodd" d="M41.7056 49.6304V45.0448C39.264 47.1376 34.1952 48.5168 28.0448 48.5168C21.8896 48.5168 16.8208 47.136 14.3792 45.0416V49.6224C14.3792 51.88 19.992 54.3968 28.0432 54.3968C36.0864 54.3968 41.6928 51.8848 41.7072 49.6288L41.7056 49.6304ZM41.7072 36.5504L43.2864 36.5408V36.5504C43.2864 37.5504 42.7872 38.4816 41.8368 39.3376C42.9984 40.3824 43.2864 41.408 43.2864 42.1376L43.2848 42.1504V49.6224C43.2848 53.2576 36.7344 56 28.0448 56C19.4 56 12.8768 53.2864 12.808 49.6784C12.808 49.6624 12.8 49.6528 12.8 49.6384V42.1344L12.8032 42.1216C12.8064 41.3952 13.096 40.3776 14.2432 39.3424C13.0976 38.3024 12.808 37.288 12.8016 36.568L12.8 36.56V29.056L12.8032 29.0448C12.8064 28.3168 13.0976 27.3008 14.2464 26.264C13.0976 25.224 12.8064 24.2112 12.8016 23.4896L12.8 23.48V15.976C12.8 15.9664 12.8048 15.9616 12.8048 15.9536C12.8368 12.3296 19.3744 9.59998 28.0448 9.59998C32.2176 9.59998 36.2272 10.288 39.0432 11.4832L38.4336 12.9632C35.8048 11.8432 32.0176 11.2032 28.0448 11.2032C19.992 11.2032 14.3808 13.72 14.3808 15.9776C14.3808 18.2384 19.992 20.7552 28.0448 20.7552C28.2656 20.7568 28.4736 20.7552 28.6896 20.7456L28.7536 22.3456C28.5168 22.3584 28.28 22.3584 28.0448 22.3584C21.8896 22.3584 16.8208 20.9776 14.3792 18.8832V23.4816C14.3888 24.3536 15.248 25.1136 15.9664 25.5968C18.1232 27.0208 21.9872 27.9904 26.2928 28.192L26.2176 29.792C21.8608 29.5904 18.0416 28.6528 15.5856 27.2192C14.9712 27.6912 14.3808 28.3264 14.3808 29.0592C14.3808 31.3168 19.992 33.8336 28.0448 33.8336C28.8384 33.8336 29.6128 33.8064 30.3696 33.7536L30.4848 35.3504C29.6912 35.408 28.8752 35.4368 28.0448 35.4368C21.8896 35.4368 16.8208 34.0576 14.3792 31.9632V36.5408C14.3888 37.4336 15.2464 38.1936 15.9664 38.6752C18.4304 40.304 23.0608 41.3152 28.0448 41.3152H28.3952V42.92H28.0432C22.9792 42.92 18.3968 41.9408 15.5872 40.2944C14.9728 40.7664 14.3808 41.4032 14.3808 42.1376C14.3808 44.3952 19.992 46.912 28.0448 46.912C36.0832 46.912 41.688 44.4048 41.7056 42.1472V42.1328C41.7056 41.4048 41.1184 40.7728 40.5072 40.3008C40.1184 40.5296 39.6992 40.7488 39.2256 40.9504L38.6144 39.4752C39.1936 39.2256 39.6992 38.9584 40.1168 38.6752C40.8416 38.1856 41.7072 37.4176 41.7072 36.5504ZM50.168 23.1824H44.9152C44.7895 23.1817 44.6657 23.1508 44.5543 23.0924C44.4429 23.0339 44.3472 22.9495 44.2752 22.8464C44.2019 22.7427 44.154 22.6232 44.1354 22.4976C44.1167 22.3719 44.1279 22.2437 44.168 22.1232L46.496 15.1664H36.0512L31.0576 24.7856H36.128C36.2499 24.7858 36.37 24.8143 36.4789 24.8691C36.5878 24.9238 36.6824 25.0031 36.7552 25.1008C36.8293 25.1991 36.8799 25.3131 36.9032 25.434C36.9265 25.5549 36.9219 25.6795 36.8896 25.7984L32.5408 41.9712L50.168 23.1824ZM52.584 22.9344L31.528 45.376C31.407 45.5036 31.2468 45.587 31.0728 45.6131C30.8989 45.6392 30.7212 45.6064 30.568 45.52C30.4147 45.4305 30.2951 45.293 30.2277 45.1287C30.1603 44.9645 30.1489 44.7826 30.1952 44.6112L35.096 26.3872H29.7488C29.6121 26.387 29.4778 26.3512 29.3591 26.2833C29.2405 26.2154 29.1415 26.1177 29.072 26C29.0015 25.8816 28.9624 25.7471 28.9585 25.6093C28.9545 25.4715 28.9859 25.335 29.0496 25.2128L34.8768 13.992C34.943 13.8638 35.043 13.7562 35.1659 13.6809C35.2889 13.6056 35.4302 13.5654 35.5744 13.5648H47.5984C47.8544 13.5648 48.0928 13.6896 48.24 13.8992C48.3129 14.0034 48.3604 14.1232 48.3787 14.2491C48.3971 14.3749 48.3857 14.5033 48.3456 14.624L46.0176 21.5792H52.0112C52.328 21.5792 52.6128 21.7712 52.7376 22.0656C52.798 22.2099 52.8156 22.3685 52.7884 22.5225C52.7612 22.6766 52.6902 22.8195 52.584 22.9344ZM15.5648 49.664C16.4784 50.1952 17.5968 50.6656 18.8912 51.056L19.3408 49.52C18.1664 49.1648 17.16 48.7456 16.3504 48.2736L15.5648 49.664ZM18.8912 38.0928L19.3408 36.5568C18.1696 36.2032 17.1648 35.7824 16.3504 35.3088L15.5648 36.7008C16.4816 37.2352 17.6016 37.704 18.8912 38.0928ZM15.5632 23.7344L16.3504 22.3456C17.1584 22.816 18.1664 23.2384 19.3424 23.5936L18.8912 25.1296C17.5952 24.7392 16.4784 24.2688 15.5632 23.7344Z" fill="white"/>
</g>
<defs>
<linearGradient id="paint0_linear_7417_751" x1="0" y1="6400" x2="6400" y2="0" gradientUnits="userSpaceOnUse">
<stop stop-color="#2E27AD"/>
<stop offset="1" stop-color="#527FFF"/>
</linearGradient>
<clipPath id="clip0_7417_751">
<rect width="64" height="64" fill="white"/>
</clipPath>
</defs>
</svg>
