<svg width="64" height="64" viewBox="0 0 64 64" fill="none" xmlns="http://www.w3.org/2000/svg">
<g clip-path="url(#clip0_7417_672)">
<path fill-rule="evenodd" clip-rule="evenodd" d="M0 0H64V64H0V0Z" fill="url(#paint0_linear_7417_672)"/>
<path fill-rule="evenodd" clip-rule="evenodd" d="M38.3536 22.3504V18.6032L32.8944 24.0624C32.7553 24.2021 32.5694 24.2853 32.3726 24.2959C32.1758 24.3066 31.982 24.2439 31.8288 24.12L28.5968 21.5344L23.7952 26.336L22.664 25.2048L27.9728 19.8976C28.1119 19.7583 28.2976 19.6752 28.4942 19.6643C28.6909 19.6534 28.8846 19.7154 29.0384 19.8384L32.2688 22.424L37.2224 17.472H33.6304V15.872H39.1536C39.3657 15.872 39.5692 15.9563 39.7192 16.1063C39.8693 16.2563 39.9536 16.4598 39.9536 16.672V22.3504H38.3536ZM20.88 33.5504H19.28V10.4C19.28 10.1878 19.3642 9.98432 19.5143 9.83429C19.6643 9.68426 19.8678 9.59998 20.08 9.59998H44.08C44.2921 9.59998 44.4956 9.68426 44.6456 9.83429C44.7957 9.98432 44.88 10.1878 44.88 10.4V33.5504H43.28V11.2H20.88V33.5504ZM12.8 51.4096V33.4624L22.6944 40.192L12.8 51.4096ZM32.0304 46.376C32.1908 46.3759 32.3475 46.3274 32.48 46.2368L39.9376 41.1632L50.272 52.7248H13.7728L24.0272 41.0992L31.5808 46.2368C31.7131 46.3276 31.8699 46.3761 32.0304 46.376ZM41.2736 40.256L51.2591 33.4624V51.4288L41.2736 40.256ZM52.5792 31.3424L46.9488 26.5424L45.912 27.7584L50.7424 31.8784L32.0304 44.608L13.3184 31.8784L18.1488 27.7584L17.112 26.5424L11.4816 31.3424C11.3934 31.4173 11.3226 31.5105 11.274 31.6155C11.2254 31.7204 11.2001 31.8347 11.2 31.9504V53.5248C11.2 53.7369 11.2842 53.9404 11.4343 54.0905C11.5843 54.2405 11.7878 54.3248 12 54.3248H52.0591C52.5023 54.3248 52.8591 53.968 52.8591 53.5248V31.9504C52.8593 31.8348 52.8343 31.7206 52.7859 31.6156C52.7376 31.5106 52.667 31.4174 52.5792 31.3424Z" fill="white"/>
</g>
<defs>
<linearGradient id="paint0_linear_7417_672" x1="0" y1="6400" x2="6400" y2="0" gradientUnits="userSpaceOnUse">
<stop stop-color="#1B660F"/>
<stop offset="1" stop-color="#6CAE3E"/>
</linearGradient>
<clipPath id="clip0_7417_672">
<rect width="64" height="64" fill="white"/>
</clipPath>
</defs>
</svg>
