<svg width="64" height="64" viewBox="0 0 64 64" fill="none" xmlns="http://www.w3.org/2000/svg">
<g clip-path="url(#clip0_7417_701)">
<path fill-rule="evenodd" clip-rule="evenodd" d="M0 0H64V64H0V0Z" fill="url(#paint0_linear_7417_701)"/>
<path fill-rule="evenodd" clip-rule="evenodd" d="M54.4001 32C54.4001 44.352 44.2481 54.4 31.7713 54.4C22.2017 54.4 13.6337 48.4 10.4465 39.4688L11.9537 38.9312C14.9121 47.2272 22.8769 52.8 31.7713 52.8C43.3665 52.8 52.8001 43.4688 52.8001 32C52.8001 20.5312 43.3665 11.2 31.7713 11.2C23.5729 11.2 16.0721 15.9632 12.6625 23.336L11.2097 22.664C14.8817 14.728 22.9521 9.59998 31.7713 9.59998C44.2481 9.59998 54.4001 19.648 54.4001 32ZM9.6001 35.2H14.4001V33.6H9.6001V35.2ZM9.6001 32H14.4001V30.4H9.6001V32ZM11.2001 28.8H14.4001V27.2H11.2001V28.8ZM44.0001 41.6C42.6769 41.6 41.6001 40.5232 41.6001 39.2C41.6001 37.8768 42.6769 36.8 44.0001 36.8C45.3233 36.8 46.4001 37.8768 46.4001 39.2C46.4001 40.5232 45.3233 41.6 44.0001 41.6ZM31.2001 41.6C29.8769 41.6 28.8001 40.5232 28.8001 39.2C28.8001 37.8768 29.8769 36.8 31.2001 36.8C32.5233 36.8 33.6001 37.8768 33.6001 39.2C33.6001 40.5232 32.5233 41.6 31.2001 41.6ZM23.2001 36.8C24.5233 36.8 25.6001 37.8768 25.6001 39.2C25.6001 40.5232 24.5233 41.6 23.2001 41.6C21.8769 41.6 20.8001 40.5232 20.8001 39.2C20.8001 37.8768 21.8769 36.8 23.2001 36.8ZM39.2001 24H16.8001C16.5879 24 16.3844 24.0843 16.2344 24.2343C16.0844 24.3843 16.0001 24.5878 16.0001 24.8V37.6C16.0001 37.8121 16.0844 38.0156 16.2344 38.1657C16.3844 38.3157 16.5879 38.4 16.8001 38.4H19.2817C19.164 38.981 19.1767 39.5809 19.319 40.1563C19.4613 40.7318 19.7295 41.2685 20.1044 41.7277C20.4793 42.187 20.9514 42.5572 21.4868 42.8118C22.0221 43.0664 22.6073 43.199 23.2001 43.2C25.4065 43.2 27.2001 41.4048 27.2001 39.2C27.2001 36.9952 25.4065 35.2 23.2001 35.2C21.8993 35.2 20.7521 35.8336 20.0209 36.8H17.6001V25.6H38.4001V36.8H34.3793C34.0099 36.3049 33.5303 35.9026 32.9785 35.6249C32.4267 35.3472 31.8178 35.2017 31.2001 35.2C30.1396 35.2012 29.1229 35.6231 28.3731 36.373C27.6232 37.1228 27.2014 38.1395 27.2001 39.2C27.2001 41.4048 28.9937 43.2 31.2001 43.2C31.7929 43.199 32.3781 43.0664 32.9134 42.8118C33.4488 42.5572 33.9209 42.187 34.2958 41.7277C34.6707 41.2685 34.9389 40.7318 35.0812 40.1563C35.2235 39.5809 35.2362 38.981 35.1185 38.4H39.2001C39.4123 38.4 39.6158 38.3157 39.7658 38.1657C39.9158 38.0156 40.0001 37.8121 40.0001 37.6V30.4H44.5329C46.5745 30.4 48.0001 31.8528 48.0001 33.9328V36.8H47.1793C46.8099 36.3049 46.3303 35.9026 45.7785 35.6249C45.2267 35.3472 44.6178 35.2017 44.0001 35.2C42.9396 35.2012 41.9229 35.6231 41.1731 36.373C40.4232 37.1228 40.0014 38.1395 40.0001 39.2C40.0001 41.4048 41.7937 43.2 44.0001 43.2C44.5929 43.199 45.1781 43.0664 45.7134 42.8118C46.2488 42.5572 46.7209 42.187 47.0958 41.7277C47.4707 41.2685 47.7389 40.7318 47.8812 40.1563C48.0235 39.5809 48.0362 38.981 47.9185 38.4H48.8001C49.0123 38.4 49.2158 38.3157 49.3658 38.1657C49.5158 38.0156 49.6001 37.8121 49.6001 37.6V33.9328C49.6001 30.96 47.4689 28.8 44.5329 28.8H40.0001V24.8C40.0001 24.5878 39.9158 24.3843 39.7658 24.2343C39.6158 24.0843 39.4123 24 39.2001 24Z" fill="white"/>
</g>
<defs>
<linearGradient id="paint0_linear_7417_701" x1="0" y1="6400" x2="6400" y2="0" gradientUnits="userSpaceOnUse">
<stop stop-color="#1B660F"/>
<stop offset="1" stop-color="#6CAE3E"/>
</linearGradient>
<clipPath id="clip0_7417_701">
<rect width="64" height="64" fill="white"/>
</clipPath>
</defs>
</svg>
