<svg width="64" height="64" viewBox="0 0 64 64" fill="none" xmlns="http://www.w3.org/2000/svg">
<g clip-path="url(#clip0_7417_652)">
<path fill-rule="evenodd" clip-rule="evenodd" d="M0 0H64V64H0V0Z" fill="url(#paint0_linear_7417_652)"/>
<path fill-rule="evenodd" clip-rule="evenodd" d="M41.6833 43.2L41.6001 22.3168L20.8001 22.4V43.2832L41.6833 43.2ZM43.2001 22.4H46.4001V24H43.2001V27.2H46.4001V28.8H43.2001V32H46.4001V33.6H43.2001V36.8H46.4001V38.4H43.2001V41.6H46.4001V43.2H43.2001V43.2832C43.1993 43.6852 43.0392 44.0705 42.7549 44.3548C42.4706 44.6391 42.0853 44.7991 41.6833 44.8H41.6001V48H40.0001V44.8H36.8001V48H35.2001V44.8H32.0001V48H30.4001V44.8H27.2001V48H25.6001V44.8H22.4001V48H20.8001V44.8H20.7169C20.3149 44.7991 19.9296 44.6391 19.6453 44.3548C19.361 44.0705 19.2009 43.6852 19.2001 43.2832V43.2H16.0001V41.6H19.2001V38.4H16.0001V36.8H19.2001V33.6H16.0001V32H19.2001V28.8H16.0001V27.2H19.2001V24H16.0001V22.4H19.2001V22.3168C19.2009 21.9148 19.361 21.5294 19.6453 21.2452C19.9296 20.9609 20.3149 20.8008 20.7169 20.8H20.8001V17.6H22.4001V20.8H25.6001V17.6H27.2001V20.8H30.4001V17.6H32.0001V20.8H35.2001V17.6H36.8001V20.8H40.0001V17.6H41.6001V20.8H41.6833C42.0853 20.8008 42.4706 20.9609 42.7549 21.2452C43.0392 21.5294 43.1993 21.9148 43.2001 22.3168V22.4ZM33.6001 52.8H11.2001V30.4H14.4001V28.8H11.2993C10.3633 28.8 9.6001 29.5632 9.6001 30.4992V52.7008C9.6001 53.6368 10.3633 54.4 11.2993 54.4H33.5025C34.4385 54.4 35.2001 53.6368 35.2001 52.7008V49.6H33.6001V52.8ZM54.4001 11.2992V33.5008C54.4001 34.4368 53.6385 35.2 52.7025 35.2H48.0001V33.6H52.8001V11.2H30.4001V16H28.8001V11.2992C28.8001 10.3632 29.5633 9.59998 30.4993 9.59998H52.7025C53.6385 9.59998 54.4001 10.3632 54.4001 11.2992Z" fill="white"/>
</g>
<defs>
<linearGradient id="paint0_linear_7417_652" x1="0" y1="6400" x2="6400" y2="0" gradientUnits="userSpaceOnUse">
<stop stop-color="#C8511B"/>
<stop offset="1" stop-color="#FF9900"/>
</linearGradient>
<clipPath id="clip0_7417_652">
<rect width="64" height="64" fill="white"/>
</clipPath>
</defs>
</svg>
