<svg width="64" height="64" viewBox="0 0 64 64" fill="none" xmlns="http://www.w3.org/2000/svg">
<path fill-rule="evenodd" clip-rule="evenodd" d="M43.5014 33.0586L45.8374 26.2306L48.1947 33.0586H43.5014ZM47.3081 23.884H44.4934L39.0841 38.668H41.6881L42.8814 34.9573H48.7921L50.0294 38.668H52.6334L47.3081 23.884ZM33.1534 30.2426H38.3801V32.332H33.1534V38.668H30.5507V23.884H39.5321V25.9746H33.1534V30.2426ZM24.2774 23.884H27.0947V38.668H24.7054V27.5946L20.8654 34.9573H18.5187L14.8067 27.6386V38.668H12.4174V23.884H15.3187L19.7547 32.6946L24.2774 23.884ZM32.0001 58.6693C17.2974 58.6693 5.33341 46.7053 5.33341 32.0013C5.33341 17.2973 17.2974 5.33329 32.0001 5.33329C46.7067 5.33329 58.6707 17.2973 58.6707 32.0013C58.6707 46.7053 46.7067 58.6693 32.0001 58.6693ZM32.0001 2.66663C15.8254 2.66663 2.66675 15.8253 2.66675 32.0013C2.66675 48.1773 15.8254 61.336 32.0001 61.336C48.1774 61.336 61.3374 48.1773 61.3374 32.0013C61.3374 15.8253 48.1774 2.66663 32.0001 2.66663Z" fill="#BF0816"/>
</svg>
