<svg width="64" height="64" viewBox="0 0 64 64" fill="none" xmlns="http://www.w3.org/2000/svg">
<path fill-rule="evenodd" clip-rule="evenodd" d="M42.9693 33.9533C42.9683 33.0751 42.619 32.2332 41.9982 31.6121C41.3773 30.991 40.5355 30.6414 39.6573 30.64C38.7788 30.641 37.9365 30.9904 37.3151 31.6115C36.6938 32.2326 36.3441 33.0748 36.3427 33.9533C36.3441 34.8315 36.6937 35.6733 37.3148 36.2942C37.9359 36.915 38.7778 37.2643 39.656 37.2653C40.5343 37.2646 41.3764 36.9155 41.9976 36.2946C42.6188 35.6736 42.9683 34.8316 42.9693 33.9533ZM45.636 33.9533C45.6339 35.5383 45.0033 37.0578 43.8826 38.1785C42.7618 39.2993 41.2423 39.9299 39.6573 39.932C38.0719 39.9306 36.5517 39.3003 35.4304 38.1795C34.3091 37.0586 33.6781 35.5388 33.676 33.9533C33.6778 32.3679 34.3084 30.8479 35.4294 29.7268C36.5505 28.6057 38.0705 27.9751 39.656 27.9733C41.2415 27.9751 42.7615 28.6057 43.8825 29.7268C45.0036 30.8479 45.6342 32.3679 45.636 33.9533ZM40.6053 21.204L37.7187 15.928L34.7093 21.204H40.604H40.6053ZM44.0227 21.8973C44.1351 22.1003 44.1924 22.3291 44.1889 22.5611C44.1855 22.793 44.1214 23.0201 44.003 23.2196C43.8847 23.4191 43.7162 23.5842 43.5142 23.6984C43.3123 23.8126 43.084 23.872 42.852 23.8707H32.4133C32.1801 23.8708 31.951 23.8094 31.749 23.6929C31.547 23.5763 31.3793 23.4086 31.2627 23.2067C31.1447 23.0053 31.082 22.7763 31.0808 22.5429C31.0796 22.3095 31.1401 22.0799 31.256 21.8773L36.5867 12.5333C36.8267 12.1133 37.296 11.82 37.7573 11.86C37.9942 11.8624 38.2262 11.928 38.4294 12.0498C38.6326 12.1717 38.7996 12.3455 38.9133 12.5533L44.0227 21.8973ZM20.244 30.6773H25.6627V25.26H20.2453V30.6773H20.244ZM26.996 22.5933C27.3496 22.5933 27.6888 22.7338 27.9388 22.9839C28.1889 23.2339 28.3293 23.573 28.3293 23.9267V32.012C28.3293 32.3656 28.1889 32.7048 27.9388 32.9548C27.6888 33.2048 27.3496 33.3453 26.996 33.3453H18.9093C18.5557 33.3453 18.2166 33.2048 17.9665 32.9548C17.7165 32.7048 17.576 32.3656 17.576 32.012V23.9267C17.576 23.573 17.7165 23.2339 17.9665 22.9839C18.2166 22.7338 18.5557 22.5933 18.9093 22.5933H26.996ZM33.6747 56.5867V40.3013H31.008V56.6933L26.6827 52.368L24.796 54.2533L31.3453 60.8C31.5958 61.0486 31.9344 61.1881 32.2873 61.1881C32.6402 61.1881 32.9788 61.0486 33.2293 60.8L39.7907 54.2387L37.9067 52.3533L33.6747 56.5867ZM52.624 11.592V30.5707C52.624 41.8693 46.488 49.1707 36.108 50.604V47.964C45.1573 46.7133 49.9573 40.536 49.9573 30.5707V11.592L32.2907 5.32932L14.6213 11.656L14.6667 30.5707C14.6667 40.536 19.4667 46.7133 28.516 47.964V50.604C18.1347 49.1707 12 41.8693 12 30.5707V11.592C12 10.4933 12.6947 9.51066 13.728 9.14532L31.44 2.81866C32.0059 2.61562 32.6248 2.61562 33.1907 2.81866L50.896 9.14666C51.4009 9.3262 51.8378 9.65766 52.1467 10.0955C52.4557 10.5334 52.6215 11.0561 52.6213 11.592H52.624Z" fill="#3F8624"/>
</svg>
