<svg width="64" height="64" viewBox="0 0 64 64" fill="none" xmlns="http://www.w3.org/2000/svg">
<g clip-path="url(#clip0_7417_668)">
<path fill-rule="evenodd" clip-rule="evenodd" d="M0 0H64V64H0V0Z" fill="url(#paint0_linear_7417_668)"/>
<path fill-rule="evenodd" clip-rule="evenodd" d="M40.8 36.1504C40.8 34.8384 39.7232 33.7728 38.4 33.7728C37.0768 33.7728 36 34.84 36 36.1504C36 37.4592 37.0768 38.5264 38.4 38.5264C39.7232 38.5264 40.8 37.4592 40.8 36.1504ZM32 27.4368C33.3232 27.4368 34.4 26.3696 34.4 25.0608C34.4 23.7488 33.3232 22.6832 32 22.6832C30.6768 22.6832 29.6 23.7504 29.6 25.0608C29.6 26.3696 30.6768 27.4368 32 27.4368ZM24 36.9408C25.3232 36.9408 26.4 35.8752 26.4 34.5648C26.4 33.256 25.3232 32.1888 24 32.1888C22.6768 32.1888 21.6 33.256 21.6 34.5648C21.6 35.8768 22.6768 36.9424 24 36.9424M42.4 36.1504C42.4 38.0624 41.024 39.6624 39.2 40.0288V45.6544C39.1995 45.759 39.1785 45.8625 39.1381 45.959C39.0976 46.0555 39.0386 46.1432 38.9643 46.2168C38.89 46.2905 38.802 46.3489 38.7051 46.3885C38.6083 46.4282 38.5046 46.4484 38.4 46.448H32.8V51.2H31.2V41.696H24C23.8953 41.6964 23.7916 41.6762 23.6948 41.6365C23.598 41.5969 23.5099 41.5385 23.4356 41.4648C23.3613 41.3912 23.3023 41.3035 23.2618 41.207C23.2214 41.1105 23.2004 41.007 23.2 40.9024V38.4448C21.376 38.0768 20 36.4768 20 34.5648C20 32.3824 21.7936 30.6048 24 30.6048C26.2064 30.6048 28 32.3824 28 34.5648C28 36.4784 26.624 38.0784 24.8 38.4448V40.1104H31.2V28.9392C29.376 28.5712 28 26.9712 28 25.0608C28 22.8768 29.7936 21.0992 32 21.0992C34.2064 21.0992 36 22.8768 36 25.0608C36 26.9728 34.624 28.5728 32.8 28.9392V44.8624H37.6V40.0304C35.776 39.6624 34.4 38.0624 34.4 36.1504C34.4 33.9664 36.1936 32.1888 38.4 32.1888C40.6064 32.1888 42.4 33.9664 42.4 36.1504ZM54.4 32.1104C54.4 38.008 49.9584 40.1104 45.8 40.1104V38.5264C47.904 38.5264 52.8 37.9008 52.8 32.1104C52.8 27.7776 49.4736 26.2064 46.6832 25.6528C46.5106 25.6192 46.3541 25.5293 46.238 25.3973C46.1219 25.2653 46.0528 25.0986 46.0416 24.9232C45.8384 21.528 43.8368 20.3216 42.1856 20.3216C41.0688 20.3216 40.0208 20.8496 39.312 21.7696C39.2235 21.8813 39.1075 21.9681 38.9754 22.0214C38.8433 22.0747 38.6995 22.0926 38.5584 22.0736C38.4167 22.053 38.2832 21.9946 38.1719 21.9045C38.0607 21.8144 37.9759 21.6959 37.9264 21.5616C37.2864 19.8432 36.3664 18.4032 35.1984 17.2848C32.1904 14.3968 28.0752 13.616 24.1936 15.192C20.9664 16.4928 18.4416 20.2512 18.4416 23.752C18.4416 24.1392 18.4672 24.528 18.5136 24.9072C18.537 25.1001 18.4886 25.295 18.3777 25.4546C18.2667 25.6142 18.101 25.7274 17.912 25.7728C16.0032 26.2416 12.8 27.68 12.8 32.0496C12.8 32.1968 12.808 32.3392 12.8144 32.4752C13.008 35.888 16.0176 38.5264 19.6704 38.5264H20V40.1104H19.6704C15.1696 40.1104 11.4576 36.8144 11.2192 32.6096C11.2078 32.4226 11.2014 32.2353 11.2 32.048C11.2 26.9824 14.7568 25.0944 16.8624 24.4224C16.8482 24.1986 16.8413 23.9745 16.8416 23.7504C16.8416 19.584 19.7424 15.2736 23.5888 13.7232C28.0768 11.8992 32.8352 12.8064 36.3104 16.1456C37.4143 17.215 38.31 18.4802 38.952 19.8768C41.7264 17.6512 46.9008 18.5728 47.5856 24.2272C51.9856 25.2864 54.4 28.0688 54.4 32.1104Z" fill="white"/>
</g>
<defs>
<linearGradient id="paint0_linear_7417_668" x1="0" y1="6400" x2="6400" y2="0" gradientUnits="userSpaceOnUse">
<stop stop-color="#C8511B"/>
<stop offset="1" stop-color="#FF9900"/>
</linearGradient>
<clipPath id="clip0_7417_668">
<rect width="64" height="64" fill="white"/>
</clipPath>
</defs>
</svg>
