<svg width="64" height="64" viewBox="0 0 64 64" fill="none" xmlns="http://www.w3.org/2000/svg">
<g clip-path="url(#clip0_7417_707)">
<path fill-rule="evenodd" clip-rule="evenodd" d="M0 0H64V64H0V0Z" fill="url(#paint0_linear_7417_707)"/>
<path fill-rule="evenodd" clip-rule="evenodd" d="M38.4383 32.5024C38.9871 33.0096 39.2607 33.6864 39.2607 34.5376C39.2607 35.4656 38.9279 36.2048 38.2623 36.7584C37.5967 37.3104 36.6991 37.5872 35.5743 37.5872C34.6663 37.5823 33.769 37.3894 32.9391 37.0208V35.8848C33.9679 36.2272 34.848 36.3968 35.576 36.3968C36.2928 36.3968 36.8463 36.2352 37.2335 35.9136C37.6207 35.5936 37.8144 35.1328 37.8144 34.5376C37.8144 33.3936 37.0911 32.8224 35.6463 32.8224C35.1964 32.8225 34.7467 32.846 34.2992 32.8928V31.9568L37.2752 28.7088H33.0799V27.5472H38.8511V28.6672L35.9295 31.7584C35.9764 31.7488 36.0241 31.744 36.0719 31.744H36.2127C37.1471 31.744 37.8895 31.9984 38.4383 32.5024ZM30.2032 32.256C30.7776 32.7936 31.0671 33.536 31.0671 34.48C31.0671 35.408 30.7312 36.1584 30.0592 36.728C29.3872 37.3008 28.504 37.5872 27.4096 37.5872C26.4771 37.5934 25.5541 37.4003 24.7024 37.0208V35.8848C25.7504 36.2272 26.6479 36.3968 27.3951 36.3968C28.1119 36.3968 28.6639 36.2336 29.0463 35.9072C29.4287 35.5808 29.6223 35.1104 29.6223 34.496C29.6223 33.824 29.4416 33.336 29.0816 33.0352C28.7232 32.7328 28.1375 32.5808 27.3231 32.5808C26.7375 32.5808 26.0064 32.6288 25.1264 32.7248V31.7856L25.3968 27.5456H30.5696V28.7088H26.5872L26.4015 31.5888C26.9231 31.4928 27.3903 31.4448 27.8063 31.4448C28.8271 31.4448 29.6272 31.7168 30.2032 32.256ZM40.848 42.5952C37.2608 43.24 34.1167 44.696 31.9999 45.8896C29.8832 44.696 26.7392 43.24 23.152 42.5936C22.1488 42.4144 17.144 41.3712 17.144 38.5008C17.144 37.1632 17.6256 36.2736 18.5472 34.6848C19.6608 32.7648 21.0464 30.376 21.0464 26.928C21.0464 24.4832 20.408 22.1344 19.1472 19.9392L19.5472 19.4496C23.7232 21.5184 28.4 21.2384 31.9999 18.9632C35.5999 21.2368 40.2768 21.5184 44.4528 19.4496L44.8528 19.9392C43.592 22.1344 42.9519 24.4832 42.9519 26.928C42.9519 30.376 44.3376 32.7648 45.4528 34.6848C46.3744 36.2736 46.8543 37.1632 46.8543 38.5008C46.8543 41.3712 41.8512 42.4144 40.848 42.5952ZM44.5471 26.928C44.5471 24.6016 45.2031 22.3696 46.4991 20.2944C46.587 20.1528 46.6286 19.9875 46.6183 19.8212C46.608 19.6549 46.5462 19.496 46.4415 19.3664L45.2799 17.9376C45.1623 17.7909 44.9965 17.6906 44.812 17.6546C44.6274 17.6186 44.4361 17.6491 44.2719 17.7408C42.4575 18.744 40.5616 19.2528 38.6432 19.2528C36.3264 19.2528 34.3008 18.6288 32.4544 17.3488C32.3206 17.257 32.1622 17.2079 31.9999 17.2079C31.8377 17.2079 31.6793 17.257 31.5455 17.3488C29.6975 18.6288 27.6735 19.2528 25.3567 19.2528C23.4367 19.2528 21.5424 18.744 19.7248 17.7408C19.5611 17.6493 19.3703 17.6189 19.1863 17.655C19.0023 17.691 18.837 17.7911 18.72 17.9376L17.5584 19.3664C17.4533 19.4958 17.3912 19.6548 17.3809 19.8211C17.3706 19.9875 17.4125 20.153 17.5008 20.2944C18.7952 22.3696 19.4512 24.6016 19.4512 26.928C19.4512 29.9472 18.1856 32.128 17.1664 33.8832C16.1648 35.6112 15.5488 36.76 15.5488 38.5008C15.5488 42.5392 21.152 43.8576 22.8688 44.1648C26.4624 44.8112 29.6 46.3344 31.5984 47.4992C31.72 47.5711 31.8587 47.6091 31.9999 47.6091C32.1412 47.6091 32.2799 47.5711 32.4015 47.4992C34.4015 46.3344 37.5375 44.8112 41.1295 44.1664C42.8479 43.8576 48.4495 42.5392 48.4495 38.5008C48.4495 36.76 47.8351 35.6112 46.8335 33.8832C45.8143 32.1296 44.5471 29.9472 44.5471 26.928ZM41.6159 46.8752C37.1007 47.6864 33.3119 50.1008 31.9999 51.016C30.688 50.1008 26.8991 47.688 22.384 46.8752C20.1344 46.472 12.7968 44.6736 12.7968 38.5008C12.7968 35.9312 13.8064 34.1872 14.7872 32.5008C15.7264 30.88 16.6992 29.2048 16.6992 26.928C16.6992 23.3808 14.6752 20.8624 13.6384 19.8048C14.72 18.4912 17.3408 15.296 18.6735 13.5808C20.6943 15.4688 23.0383 16.4992 25.3567 16.4992C27.9327 16.4992 30.0639 15.4592 31.9999 13.2416C33.9359 15.4608 36.0688 16.4992 38.6432 16.4992C40.9616 16.4992 43.3055 15.4704 45.3247 13.5808C46.6575 15.296 49.2799 18.4912 50.3615 19.8048C49.3231 20.8608 47.3007 23.3808 47.3007 26.928C47.3007 29.2048 48.2735 30.88 49.2127 32.5008C50.1919 34.1872 51.2031 35.9312 51.2031 38.5008C51.2031 44.6736 43.8639 46.472 41.6159 46.8752ZM50.5935 31.6992C49.6815 30.1312 48.8976 28.7744 48.8976 26.928C48.8976 23.04 51.9247 20.5216 51.9567 20.496C52.1204 20.3607 52.2241 20.1663 52.245 19.955C52.266 19.7438 52.2026 19.5327 52.0687 19.368C52.0207 19.3088 47.1631 13.4224 46.0543 11.8992C45.9855 11.8036 45.8962 11.7245 45.7931 11.6676C45.6899 11.6108 45.5754 11.5775 45.4578 11.5703C45.3402 11.5631 45.2225 11.5822 45.1131 11.626C45.0038 11.6699 44.9056 11.7375 44.8256 11.824C42.9696 13.808 40.7744 14.9024 38.6432 14.9024C36.2896 14.9024 34.4351 13.8528 32.6335 11.4976C32.5561 11.4045 32.4591 11.3297 32.3494 11.2783C32.2398 11.2269 32.1202 11.2003 31.9992 11.2003C31.8781 11.2003 31.7585 11.2269 31.6489 11.2783C31.5392 11.3297 31.4422 11.4045 31.3648 11.4976C29.5632 13.8528 27.7087 14.9024 25.3567 14.9024C23.2255 14.9024 21.0304 13.8096 19.1744 11.824C19.0943 11.7375 18.9961 11.6699 18.8868 11.626C18.7774 11.5822 18.6597 11.5631 18.5421 11.5703C18.4245 11.5775 18.31 11.6108 18.2068 11.6676C18.1037 11.7245 18.0144 11.8036 17.9456 11.8992C16.8368 13.4224 11.9808 19.3072 11.9296 19.368C11.7956 19.533 11.7325 19.7443 11.7541 19.9558C11.7757 20.1672 11.8802 20.3614 12.0448 20.496C12.0752 20.5216 15.1024 23.016 15.1024 26.928C15.1024 28.7744 14.3184 30.1296 13.4048 31.6992C12.3712 33.4816 11.2 35.5008 11.2 38.4992C11.2 43.5024 15.2736 47.2208 22.1008 48.4464C27.2047 49.3648 31.4719 52.6016 31.5135 52.6336C31.653 52.7407 31.824 52.7988 31.9999 52.7988C32.1759 52.7988 32.3469 52.7407 32.4864 52.6336C32.528 52.6016 36.7968 49.3648 41.8991 48.4464C48.7247 47.2208 52.7999 43.504 52.7999 38.5008C52.7999 35.5008 51.6287 33.48 50.5935 31.6992Z" fill="white"/>
</g>
<defs>
<linearGradient id="paint0_linear_7417_707" x1="0" y1="6400" x2="6400" y2="0" gradientUnits="userSpaceOnUse">
<stop stop-color="#4D27A8"/>
<stop offset="1" stop-color="#A166FF"/>
</linearGradient>
<clipPath id="clip0_7417_707">
<rect width="64" height="64" fill="white"/>
</clipPath>
</defs>
</svg>
