<svg width="64" height="64" viewBox="0 0 64 64" fill="none" xmlns="http://www.w3.org/2000/svg">
<path fill-rule="evenodd" clip-rule="evenodd" d="M20.0001 33.3347H25.3334V30.6681H20.0001V33.3347ZM5.33341 36.0014H14.6667V26.6681H5.33341V36.0014ZM16.0001 38.6681H4.00008C3.64646 38.6681 3.30732 38.5276 3.05727 38.2775C2.80722 38.0275 2.66675 37.6883 2.66675 37.3347V25.3347C2.66675 24.9811 2.80722 24.642 3.05727 24.3919C3.30732 24.1419 3.64646 24.0014 4.00008 24.0014H16.0001C16.3537 24.0014 16.6928 24.1419 16.9429 24.3919C17.1929 24.642 17.3334 24.9811 17.3334 25.3347V37.3347C17.3334 37.6883 17.1929 38.0275 16.9429 38.2775C16.6928 38.5276 16.3537 38.6681 16.0001 38.6681ZM57.6001 36.0014L53.3334 29.1881L49.0667 36.0014H57.6001ZM61.1601 37.9747C61.0458 38.183 60.8781 38.357 60.6742 38.4789C60.4703 38.6007 60.2376 38.666 60.0001 38.6681H46.6667C46.4284 38.6688 46.1942 38.6056 45.9886 38.4851C45.7829 38.3646 45.6134 38.1911 45.4975 37.9828C45.3817 37.7745 45.3238 37.539 45.3298 37.3007C45.3359 37.0625 45.4058 36.8302 45.5321 36.6281L52.1987 25.9614C52.3182 25.7679 52.4851 25.6081 52.6837 25.4973C52.8823 25.3865 53.106 25.3283 53.3334 25.3283C53.5608 25.3283 53.7845 25.3865 53.9831 25.4973C54.1817 25.6081 54.3486 25.7679 54.4681 25.9614L61.1347 36.6281C61.3841 37.0387 61.3947 37.5534 61.1601 37.9747ZM57.3334 54.6681C57.3334 53.6072 56.912 52.5898 56.1618 51.8396C55.4117 51.0895 54.3943 50.6681 53.3334 50.6681C52.2725 50.6681 51.2551 51.0895 50.505 51.8396C49.7548 52.5898 49.3334 53.6072 49.3334 54.6681C49.3334 55.7289 49.7548 56.7463 50.505 57.4965C51.2551 58.2466 52.2725 58.6681 53.3334 58.6681C54.3943 58.6681 55.4117 58.2466 56.1618 57.4965C56.912 56.7463 57.3334 55.7289 57.3334 54.6681ZM60.0001 54.6681C60.0001 56.3202 59.3867 57.9135 58.2787 59.139C57.1708 60.3646 55.6472 61.135 54.0035 61.3011C52.3597 61.4672 50.7128 61.0169 49.3822 60.0377C48.0515 59.0586 47.1318 57.6201 46.8014 56.0014H9.33341C8.97979 56.0014 8.64065 55.8609 8.39061 55.6109C8.14056 55.3608 8.00008 55.0217 8.00008 54.6681V41.3347H10.6667V53.3347H46.8014C46.9753 52.4767 47.3166 51.6614 47.8057 50.9353C48.2948 50.2093 48.9222 49.5867 49.652 49.1032C50.3818 48.6196 51.1997 48.2846 52.059 48.1173C52.9183 47.95 53.8022 47.9537 54.6601 48.1281C56.1684 48.4341 57.5243 49.2526 58.4977 50.4447C59.471 51.6368 60.0019 53.129 60.0001 54.6681ZM29.3334 33.3347H34.6667V30.6681H29.3334V33.3347ZM49.3334 9.33472C49.3334 10.3956 49.7548 11.413 50.505 12.1632C51.2551 12.9133 52.2725 13.3347 53.3334 13.3347C54.3943 13.3347 55.4117 12.9133 56.1618 12.1632C56.912 11.413 57.3334 10.3956 57.3334 9.33472C57.3334 8.27386 56.912 7.25644 56.1618 6.5063C55.4117 5.75615 54.3943 5.33472 53.3334 5.33472C52.2725 5.33472 51.2551 5.75615 50.505 6.5063C49.7548 7.25644 49.3334 8.27386 49.3334 9.33472ZM10.6667 21.3347H8.00008V9.33472C8.00008 8.9811 8.14056 8.64196 8.39061 8.39192C8.64065 8.14187 8.97979 8.00139 9.33341 8.00139H46.8014C47.155 6.26935 48.1822 4.74873 49.657 3.77404C51.1318 2.79935 52.9334 2.45044 54.6654 2.80406C56.3975 3.15768 57.9181 4.18487 58.8928 5.65966C59.8675 7.13444 60.2164 8.93602 59.8627 10.6681C59.5542 12.1723 58.7358 13.5238 57.5459 14.4944C56.356 15.4649 54.8676 15.995 53.3321 15.995C51.7966 15.995 50.3081 15.4649 49.1182 14.4944C47.9284 13.5238 47.11 12.1723 46.8014 10.6681H10.6667V21.3347ZM38.6667 33.3347H44.0001V30.6681H38.6667V33.3347Z" fill="#BF0816"/>
</svg>
