<svg width="64" height="64" viewBox="0 0 64 64" fill="none" xmlns="http://www.w3.org/2000/svg">
<g clip-path="url(#clip0_7417_680)">
<path fill-rule="evenodd" clip-rule="evenodd" d="M0 0H64V64H0V0Z" fill="url(#paint0_linear_7417_680)"/>
<path fill-rule="evenodd" clip-rule="evenodd" d="M23.0177 52.8H13.2321L24.0529 29.7184L28.9553 40.0224L23.0193 52.8H23.0177ZM24.7537 27.5232C24.6906 27.3887 24.5907 27.2749 24.4655 27.195C24.3403 27.1152 24.195 27.0725 24.0465 27.072H24.0433C23.8946 27.0738 23.7495 27.1175 23.6247 27.1982C23.4999 27.2789 23.4004 27.3932 23.3377 27.528L11.2769 53.256C11.2196 53.3781 11.1937 53.5126 11.2016 53.6473C11.2094 53.7819 11.2507 53.9125 11.3217 54.0272C11.4657 54.2592 11.7169 54.4 11.9857 54.4H23.5153C23.8193 54.4 24.0961 54.2224 24.2273 53.9424L30.5377 40.36C30.588 40.2516 30.6137 40.1335 30.6132 40.014C30.6126 39.8946 30.5858 39.7767 30.5345 39.6688L24.7537 27.5232ZM51.2289 52.8H41.8177L26.6657 19.6624C26.6039 19.5254 26.5041 19.4091 26.3782 19.3271C26.2523 19.2452 26.1055 19.2011 25.9553 19.2H19.7921L19.8001 11.2H31.8785L46.9569 44.336C47.0849 44.6192 47.3665 44.8 47.6705 44.8H51.2289V52.8ZM52.0129 43.2H48.1729L33.0945 10.064C33.0325 9.92637 32.9323 9.80947 32.8058 9.72721C32.6793 9.64495 32.5318 9.60078 32.3809 9.59998H19.0161C18.8059 9.60209 18.6051 9.68751 18.4578 9.83749C18.3105 9.98748 18.2287 10.1898 18.2305 10.4L18.2209 20C18.2209 20.2112 18.3041 20.4144 18.4513 20.5664C18.5237 20.6401 18.6101 20.6988 18.7054 20.7389C18.8007 20.779 18.9031 20.7997 19.0065 20.8H25.4577L40.6065 53.9376C40.7345 54.2192 41.0129 54.4 41.3185 54.4H52.0161C52.1202 54.3991 52.2232 54.3778 52.319 54.3371C52.4149 54.2964 52.5018 54.2372 52.5748 54.1629C52.6478 54.0886 52.7054 54.0006 52.7443 53.904C52.7832 53.8074 52.8027 53.7041 52.8017 53.6V44C52.8017 43.5584 52.4513 43.2 52.0161 43.2H52.0129Z" fill="white"/>
</g>
<defs>
<linearGradient id="paint0_linear_7417_680" x1="0" y1="6400" x2="6400" y2="0" gradientUnits="userSpaceOnUse">
<stop stop-color="#C8511B"/>
<stop offset="1" stop-color="#FF9900"/>
</linearGradient>
<clipPath id="clip0_7417_680">
<rect width="64" height="64" fill="white"/>
</clipPath>
</defs>
</svg>
