<svg width="64" height="64" viewBox="0 0 64 64" fill="none" xmlns="http://www.w3.org/2000/svg">
<g clip-path="url(#clip0_7417_771)">
<path fill-rule="evenodd" clip-rule="evenodd" d="M0 0H64V64H0V0Z" fill="url(#paint0_linear_7417_771)"/>
<path fill-rule="evenodd" clip-rule="evenodd" d="M28.8079 47.1616V18.6096L19.2079 22.1568V39.1952C19.2255 39.4736 19.7583 46.7584 28.8079 47.1616ZM39.9407 36.3296V22.1568L30.4079 18.6128V47.1696C31.8671 47.0672 32.7231 46.6896 33.6847 46.1104C33.7679 46.6656 33.8991 47.2064 34.0799 47.7248C32.9055 48.3744 31.6671 48.8 29.5743 48.8C18.2095 48.8 17.6143 39.3296 17.6095 39.2336V21.6C17.6094 21.4366 17.6593 21.2772 17.7526 21.143C17.8458 21.0089 17.9779 20.9065 18.1311 20.8496L29.3311 16.7104C29.5104 16.6447 29.7074 16.6452 29.8863 16.712L41.0191 20.8496C41.1723 20.9065 41.3043 21.0089 41.3976 21.143C41.4908 21.2772 41.5408 21.4366 41.5407 21.6V36.0128C40.9986 36.0679 40.4629 36.1739 39.9407 36.3296ZM43.2079 40.7952H41.6079V43.9952H38.4079V45.5952H41.6079V48.7952H43.2079V45.5952H46.4079V43.9952H43.2079V40.7952ZM48.0831 44.8192C48.0814 43.3208 47.4855 41.8842 46.4261 40.8245C45.3667 39.7648 43.9303 39.1685 42.4319 39.1664C40.9332 39.1681 39.4964 39.7642 38.4366 40.824C37.3769 41.8837 36.7808 43.3205 36.7791 44.8192C36.7812 46.3176 37.3775 47.754 38.4372 48.8134C39.4969 49.8728 40.9335 50.4687 42.4319 50.4704C43.93 50.4683 45.3662 49.8722 46.4256 48.8129C47.4849 47.7535 48.081 46.3174 48.0831 44.8192ZM49.6831 44.8192C49.681 46.7417 48.9163 48.5848 47.5569 49.9442C46.1975 51.3037 44.3544 52.0683 42.4319 52.0704C40.5093 52.0683 38.6659 51.3037 37.3063 49.9443C35.9466 48.585 35.1816 46.7418 35.1791 44.8192C35.1816 42.8964 35.9466 41.0531 37.3062 39.6935C38.6658 38.3339 40.5091 37.569 42.4319 37.5664C44.3545 37.569 46.1977 38.334 47.557 39.6936C48.9164 41.0533 49.681 42.8966 49.6831 44.8192ZM36.0303 50.9152C36.4463 51.3504 36.9007 51.7456 37.3951 52.0896C35.1583 53.1312 32.5551 53.6704 29.6079 53.6704C24.4271 53.6704 20.3231 52.1216 17.4159 49.0656C12.4783 43.8784 12.7919 36.2816 12.8095 35.9616V18.4C12.8095 18.072 13.0063 17.7792 13.3103 17.6576L29.3103 11.2576C29.5013 11.1809 29.7145 11.1809 29.9055 11.2576L45.9055 17.6576C46.2095 17.7792 46.4079 18.072 46.4079 18.4V36C46.4079 36 46.4207 36.3568 46.4047 36.92C45.8957 36.6629 45.3631 36.4555 44.8143 36.3008C44.8124 36.2128 44.8108 36.1248 44.8095 36.0368V18.9408L29.6095 12.8624L14.4095 18.9408V36C14.4031 36.1104 14.1167 43.2896 18.5823 47.9712C21.1759 50.6912 24.8863 52.0704 29.6079 52.0704C32.0207 52.0704 34.1567 51.664 36.0303 50.9152Z" fill="white"/>
</g>
<defs>
<linearGradient id="paint0_linear_7417_771" x1="0" y1="6400" x2="6400" y2="0" gradientUnits="userSpaceOnUse">
<stop stop-color="#BD0816"/>
<stop offset="1" stop-color="#FF5252"/>
</linearGradient>
<clipPath id="clip0_7417_771">
<rect width="64" height="64" fill="white"/>
</clipPath>
</defs>
</svg>
