<svg width="64" height="64" viewBox="0 0 64 64" fill="none" xmlns="http://www.w3.org/2000/svg">
<g clip-path="url(#clip0_7417_767)">
<path fill-rule="evenodd" clip-rule="evenodd" d="M0 0H64V64H0V0Z" fill="url(#paint0_linear_7417_767)"/>
<path fill-rule="evenodd" clip-rule="evenodd" d="M13.0208 33.6H11.2V32H13.0224C13.17 28.1225 14.4628 24.3756 16.7376 21.232L18.0352 22.168C15.9568 25.0391 14.7698 28.4586 14.6224 32H17.6V33.6H14.6208C14.7696 37.1792 15.9328 40.584 18.0352 43.488L16.7376 44.4256C14.4512 41.2661 13.1573 37.4975 13.0208 33.6ZM44.3952 48.8896C41.2451 51.1717 37.4873 52.465 33.6 52.6047V54.4H32V52.6064C28.1119 52.4649 24.3535 51.1719 21.2016 48.8912L22.1392 47.5936C25.0184 49.6773 28.4487 50.8645 32 51.0064V48H33.6V51.0048C37.1501 50.8651 40.5798 49.6788 43.4576 47.5952L44.3952 48.8896ZM21.2016 16.7664C24.3532 14.485 28.1118 13.1919 32 13.0512V11.2H33.6V13.0512C37.5088 13.2064 41.2288 14.472 44.3952 16.7664L43.4576 18.0624C40.5795 15.979 37.1501 14.7922 33.6 14.6512V17.6H32V14.6512C28.432 14.8048 25.0368 15.9664 22.1392 18.064L21.2016 16.7664ZM54.4 32V33.6H52.5776C52.4423 37.4977 51.1482 41.2667 48.8608 44.4256L47.5648 43.488C49.6539 40.6013 50.8414 37.1607 50.9776 33.6H48V32H50.976C50.816 28.44 49.6544 25.056 47.5648 22.168L48.8608 21.232C51.1366 24.375 52.4295 28.1222 52.576 32H54.4ZM44.3296 20.1664L50.3776 14.1184L51.5088 15.2496L45.4608 21.2992L44.3296 20.1664ZM21.2688 45.4896L15.2208 51.5375L14.0896 50.4064L20.1376 44.3584L21.2688 45.4896ZM22.9456 24.0768L11.4976 12.6304L12.6288 11.4992L24.0768 22.9456L22.9456 24.0768ZM43.7696 42.6384L54.1008 52.9696L52.9696 54.1008L42.6384 43.7696L43.7696 42.6384ZM25.5056 34.1824C25.5728 34.064 25.6448 33.9456 25.7184 33.8304C27.2016 31.496 26.7184 28.2815 26.2448 26.4303C27.552 27.2063 28.7296 28.976 29.1584 29.7712C29.2272 29.9115 29.3378 30.0271 29.4751 30.1019C29.6124 30.1767 29.7695 30.207 29.9248 30.1888C30.0795 30.1774 30.2275 30.1211 30.3506 30.0267C30.4737 29.9323 30.5665 29.804 30.6176 29.6576C31.9456 25.8848 31.1968 23.0864 30.2464 21.3232C31.4435 21.9621 32.4029 22.9698 32.9824 24.1968C34.216 26.7616 33.9424 30.2672 32.2672 33.3456C29.9632 37.5856 30.4736 42.0352 31 44.3536C29.744 43.8298 28.5451 43.1784 27.4224 42.4096C24.776 40.5664 23.9328 36.952 25.5056 34.1824ZM37.2464 33.9312C37.2211 34.0907 37.2447 34.2541 37.3141 34.4C37.3835 34.5459 37.4954 34.6673 37.6352 34.7483C37.7749 34.8294 37.9359 34.8662 38.097 34.854C38.258 34.8418 38.4116 34.7811 38.5376 34.68C38.608 34.624 40.056 33.4272 40.7232 30.5152C41.5856 31.6896 42.5552 34.1488 41.3584 38.784C40.1968 43.2864 34.6544 44.5136 32.7712 44.8032C32.3104 43.1632 31.3216 38.4352 33.6736 34.1104C35.3728 30.9872 35.784 27.4432 34.8464 24.5744C36.5056 26.4112 37.9776 29.376 37.2464 33.9312ZM24.1152 33.392C22.1376 36.8736 23.1888 41.4112 26.5072 43.7232C28.0144 44.7744 29.8432 45.688 31.9392 46.4384C32.0261 46.4685 32.1175 46.4841 32.2096 46.4848C32.2256 46.4848 32.2416 46.4768 32.256 46.4752V46.4832C32.6224 46.4544 41.224 45.7072 42.9088 39.184C45.0752 30.7856 40.7504 28.3024 40.5648 28.2C40.4492 28.1364 40.3196 28.1024 40.1877 28.1011C40.0557 28.0998 39.9255 28.1313 39.8087 28.1926C39.6919 28.2539 39.5921 28.3433 39.5183 28.4526C39.4444 28.5619 39.3988 28.6879 39.3856 28.8192C39.3198 29.471 39.1939 30.1153 39.0096 30.744C38.5776 23.8544 33.1312 21.0864 32.0896 20.6192C31.0064 19.7888 29.6912 19.2192 28.1632 18.9472C27.9902 18.919 27.8127 18.9481 27.6578 19.0302C27.5029 19.1123 27.3792 19.2428 27.3054 19.4018C27.2316 19.5608 27.2118 19.7395 27.2491 19.9108C27.2864 20.0821 27.3787 20.2364 27.512 20.3504C27.6448 20.4608 30.4256 22.8688 29.5632 27.4512C28.576 26.1232 26.9536 24.4528 25.0432 24.4528C24.9131 24.4528 24.785 24.4845 24.67 24.5452C24.555 24.6058 24.4565 24.6936 24.3831 24.801C24.3096 24.9083 24.2635 25.0319 24.2486 25.1611C24.2337 25.2903 24.2505 25.4211 24.2976 25.5424C24.3152 25.5888 26.0896 30.2656 24.368 32.9712C24.2789 33.1085 24.1946 33.2488 24.1152 33.392Z" fill="white"/>
</g>
<defs>
<linearGradient id="paint0_linear_7417_767" x1="0" y1="6400" x2="6400" y2="0" gradientUnits="userSpaceOnUse">
<stop stop-color="#BD0816"/>
<stop offset="1" stop-color="#FF5252"/>
</linearGradient>
<clipPath id="clip0_7417_767">
<rect width="64" height="64" fill="white"/>
</clipPath>
</defs>
</svg>
