<svg width="64" height="64" viewBox="0 0 64 64" fill="none" xmlns="http://www.w3.org/2000/svg">
<g clip-path="url(#clip0_7417_727)">
<path fill-rule="evenodd" clip-rule="evenodd" d="M0 0H64V64H0V0Z" fill="url(#paint0_linear_7417_727)"/>
<path fill-rule="evenodd" clip-rule="evenodd" d="M47.624 38.4304L49.136 38.9632L48.1888 41.6512C48.1286 41.8214 48.0128 41.9665 47.8601 42.0628C47.7074 42.1592 47.5267 42.2013 47.3472 42.1824L44.2832 41.8544L44.4512 40.2608L45.904 40.4144C45.5402 39.9015 45.0595 39.4827 44.5016 39.1928C43.9437 38.9028 43.3247 38.7501 42.696 38.7472C41.7851 38.75 40.903 39.0661 40.1977 39.6423C39.4923 40.2186 39.0067 41.02 38.8224 41.912L37.2496 41.592C37.5091 40.3382 38.1921 39.2118 39.1838 38.4019C40.1755 37.592 41.4156 37.1479 42.696 37.144C44.5472 37.144 46.216 38.0832 47.2368 39.5312L47.624 38.4304ZM46.5728 43.4944L48.144 43.8144C47.884 45.0683 47.2008 46.1947 46.2088 47.0046C45.2168 47.8145 43.9765 48.2586 42.696 48.2624C41.8574 48.2584 41.0306 48.0648 40.2775 47.696C39.5243 47.3272 38.8644 46.7928 38.3472 46.1328L38.1552 47.0032L36.5888 46.656L37.2208 43.8128C37.2654 43.6154 37.3827 43.4421 37.5493 43.3274C37.7159 43.2126 37.9197 43.1649 38.12 43.1936L41.0128 43.6256L40.7776 45.2096L39.5136 45.0224C39.8782 45.5265 40.3565 45.9375 40.9097 46.2222C41.4629 46.5069 42.0754 46.6571 42.6976 46.6608C43.6089 46.6583 44.4915 46.3421 45.1972 45.7655C45.9029 45.1889 46.3887 44.3869 46.5728 43.4944ZM52.7968 44.0704L51.8464 44.0144C51.656 43.9989 51.4665 44.0539 51.314 44.169C51.1615 44.284 51.0566 44.4511 51.0192 44.6384C50.8077 45.5739 50.4387 46.4666 49.928 47.2784C49.8273 47.4385 49.7864 47.629 49.8125 47.8163C49.8385 48.0037 49.9299 48.1758 50.0704 48.3024L50.7808 48.936L48.936 50.7808L48.3056 50.0736C48.1791 49.9324 48.0067 49.8406 47.8191 49.8142C47.6314 49.7879 47.4404 49.8287 47.28 49.9296C46.4689 50.4425 45.576 50.8126 44.64 51.024C44.4544 51.0655 44.2897 51.1716 44.1754 51.3235C44.0611 51.4754 44.0045 51.663 44.016 51.8528L44.0688 52.7968H41.4608L41.5152 51.8528C41.527 51.663 41.4709 51.4751 41.3569 51.323C41.2428 51.1708 41.0783 51.0642 40.8928 51.0224C39.9562 50.8126 39.063 50.4424 38.2528 49.928C38.0923 49.8279 37.9018 49.7874 37.7146 49.8138C37.5273 49.8401 37.3553 49.9315 37.2288 50.072L36.5952 50.7808L34.7504 48.9376L35.4592 48.3056C35.6013 48.1794 35.6938 48.0067 35.7202 47.8185C35.7466 47.6303 35.7051 47.4388 35.6032 47.2784C35.0914 46.4669 34.7218 45.5741 34.5104 44.6384C34.472 44.4518 34.3671 44.2856 34.2151 44.1708C34.0632 44.056 33.8747 44.0004 33.6848 44.0144L32.7344 44.0688V41.4608L33.688 41.5136C33.8784 41.5301 34.0681 41.4754 34.2206 41.3602C34.3731 41.2449 34.4775 41.0773 34.5136 40.8896C34.7267 39.9558 35.0973 39.0652 35.6096 38.256C35.7112 38.0955 35.7525 37.9041 35.7261 37.7159C35.6997 37.5278 35.6074 37.3552 35.4656 37.2288L34.7504 36.592L36.5952 34.7488L37.232 35.4608C37.358 35.6021 37.5301 35.6941 37.7176 35.7205C37.9051 35.7468 38.0958 35.7058 38.256 35.6048C39.0664 35.0936 39.9581 34.7246 40.8928 34.5136C41.0777 34.4718 41.2418 34.3657 41.3558 34.2142C41.4698 34.0627 41.5263 33.8757 41.5152 33.6864L41.4608 32.7312H44.0688L44.016 33.6864C44.0049 33.8761 44.0615 34.0635 44.1758 34.2153C44.2901 34.3671 44.4546 34.4734 44.64 34.5152C45.576 34.7264 46.4608 35.0928 47.272 35.6064C47.4321 35.7074 47.6228 35.7484 47.8103 35.7221C47.9978 35.6957 48.1699 35.6037 48.296 35.4624L48.936 34.7472L50.7808 36.592L50.0672 37.2272C49.9256 37.3537 49.8335 37.5264 49.8071 37.7144C49.7807 37.9025 49.8219 38.0938 49.9232 38.2544C50.4384 39.0672 50.8064 39.9552 51.0176 40.8896C51.104 41.2704 51.424 41.5536 51.8448 41.5136L52.7968 41.4608V44.0688V44.0704ZM54.1487 40.0288C53.9858 39.8811 53.7718 39.8025 53.552 39.8096L52.408 39.8768C52.2119 39.2218 51.9492 38.5886 51.624 37.9872L52.48 37.224C52.5619 37.1515 52.6281 37.063 52.6745 36.9638C52.7208 36.8647 52.7462 36.7571 52.7492 36.6477C52.7522 36.5383 52.7327 36.4295 52.6919 36.328C52.6511 36.2265 52.5898 36.1344 52.512 36.0576L49.4688 33.0128C49.3044 32.8708 49.0969 32.7884 48.88 32.7792C48.7707 32.7817 48.6632 32.8067 48.5641 32.8527C48.4649 32.8986 48.3764 32.9646 48.304 33.0464L47.536 33.9072C46.9374 33.5819 46.3068 33.3192 45.6544 33.1232L45.7184 31.9744C45.7249 31.8653 45.7091 31.7561 45.6718 31.6535C45.6345 31.5508 45.5767 31.4568 45.5017 31.3774C45.4268 31.298 45.3363 31.2347 45.236 31.1915C45.1357 31.1484 45.0276 31.1262 44.9184 31.1264H40.6128C40.5035 31.1259 40.3953 31.1481 40.295 31.1916C40.1947 31.2351 40.1046 31.299 40.0304 31.3792C39.9551 31.4584 39.8969 31.5523 39.8595 31.655C39.8221 31.7576 39.8062 31.8669 39.8128 31.976L39.8768 33.1232C39.2233 33.3186 38.5917 33.5808 37.992 33.9056L37.2272 33.0464C37.1546 32.9647 37.066 32.8989 36.9669 32.8529C36.8678 32.807 36.7603 32.7819 36.6512 32.7792C36.4322 32.7813 36.2219 32.8645 36.0608 33.0128L33.0176 36.0576C32.9401 36.1347 32.8792 36.2268 32.8387 36.3283C32.7981 36.4297 32.7788 36.5384 32.7818 36.6477C32.7848 36.7569 32.8101 36.8644 32.8561 36.9635C32.9022 37.0626 32.968 37.1512 33.0496 37.224L33.9072 37.9904C33.5824 38.592 33.32 39.2224 33.1232 39.8768L31.9792 39.8096C31.7595 39.8036 31.5459 39.8821 31.3824 40.0288C31.3035 40.1039 31.2407 40.1943 31.1978 40.2944C31.1549 40.3945 31.1328 40.5023 31.1328 40.6112V44.9168C31.1328 45.1392 31.224 45.3488 31.3824 45.5008C31.4613 45.5764 31.5551 45.6347 31.6579 45.6719C31.7607 45.7091 31.8701 45.7244 31.9792 45.7168L33.12 45.6528C33.3152 46.3104 33.576 46.9424 33.9024 47.5456L33.0496 48.3056C32.9687 48.3784 32.9035 48.4669 32.8579 48.5657C32.8122 48.6645 32.7872 48.7715 32.7842 48.8803C32.7812 48.9891 32.8003 49.0974 32.8404 49.1985C32.8806 49.2997 32.9408 49.3916 33.0176 49.4688L36.0608 52.5152C36.138 52.5921 36.2302 52.6524 36.3315 52.6925C36.4329 52.7327 36.5414 52.7518 36.6504 52.7486C36.7593 52.7455 36.8665 52.7202 36.9654 52.6743C37.0643 52.6284 37.1528 52.5628 37.2256 52.4816L37.9872 51.6288C38.5888 51.9568 39.2224 52.2208 39.8784 52.4144L39.8128 53.5536C39.8064 53.6625 39.8224 53.7715 39.8598 53.874C39.8972 53.9765 39.9551 54.0702 40.03 54.1495C40.1049 54.2288 40.1953 54.2919 40.2955 54.335C40.3957 54.378 40.5037 54.4002 40.6128 54.4H44.9168C45.0259 54.3999 45.1339 54.3776 45.2341 54.3344C45.3343 54.2911 45.4247 54.2278 45.4996 54.1485C45.5745 54.0691 45.6324 53.9752 45.6697 53.8726C45.7071 53.7701 45.7231 53.6609 45.7168 53.552L45.6528 52.416C46.3088 52.2192 46.9408 51.9584 47.5456 51.632L48.3056 52.4816C48.3781 52.5634 48.4666 52.6294 48.5657 52.6756C48.6648 52.7219 48.7723 52.7473 48.8816 52.7504C49.0994 52.746 49.3081 52.6624 49.4688 52.5152L52.5136 49.4688C52.5906 49.3917 52.6511 49.2998 52.6914 49.1985C52.7316 49.0973 52.7507 48.9888 52.7476 48.8799C52.7444 48.771 52.7191 48.6639 52.6731 48.5651C52.627 48.4664 52.5613 48.378 52.48 48.3056L51.6271 47.5424C51.9519 46.9392 52.2128 46.3072 52.4096 45.6544L53.552 45.7184C53.6608 45.7242 53.7697 45.7079 53.8721 45.6704C53.9745 45.6329 54.0681 45.575 54.1474 45.5001C54.2267 45.4253 54.29 45.3352 54.3334 45.2352C54.3768 45.1352 54.3995 45.0274 54.4 44.9184V40.6112C54.4 40.5021 54.3777 40.3942 54.3345 40.294C54.2913 40.1939 54.2281 40.1036 54.1487 40.0288ZM12.8032 44.7568H27.2816V46.36H12.0016C11.7892 46.36 11.5856 46.2757 11.4353 46.1258C11.285 45.9758 11.2004 45.7723 11.2 45.56V10.4C11.2 9.95838 11.5584 9.59998 12 9.59998H48.9728C49.4144 9.59998 49.7728 9.95838 49.7728 10.4016V28.776H48.1712V11.2032H12.8032V44.7568ZM39.2784 23.9648H38.488V20.752H43.3616V23.9648H39.2784ZM40.08 19.1488H41.6576V15.9808H40.08V19.152V19.1488ZM43.2608 28.776V25.568H44.1632C44.6048 25.568 44.9632 25.2096 44.9632 24.768V19.9504C44.9632 19.7381 44.8789 19.5344 44.7289 19.3841C44.579 19.2338 44.3755 19.1492 44.1632 19.1488H43.2608V15.176C43.2608 15.0708 43.24 14.9666 43.1997 14.8695C43.1594 14.7723 43.1003 14.684 43.0259 14.6097C42.9514 14.5354 42.863 14.4765 42.7658 14.4364C42.6685 14.3963 42.5643 14.3758 42.4592 14.376H39.2784C39.0662 14.376 38.8627 14.4603 38.7127 14.6103C38.5626 14.7603 38.4784 14.9638 38.4784 15.176V19.1488H37.6864C37.4742 19.1488 37.2707 19.2331 37.1207 19.3831C36.9706 19.5331 36.8864 19.7366 36.8864 19.9488V24.7664C36.8861 24.8716 36.9067 24.9758 36.9468 25.073C36.9869 25.1703 37.0458 25.2586 37.1201 25.3331C37.1944 25.4076 37.2827 25.4666 37.3798 25.5069C37.477 25.5472 37.5812 25.568 37.6864 25.568H38.4768V28.776H40.08V25.568H41.6576V28.776H43.2608ZM28.032 30.304H27.12V27.248H32.0896V30.304H28.032ZM28.832 25.6432H30.4864V15.9792H28.832V25.6432ZM32.0912 35.088V31.9072H32.8912C33.3344 31.9072 33.6944 31.5472 33.6944 31.1056V26.4464C33.6946 26.341 33.674 26.2366 33.6338 26.1391C33.5936 26.0417 33.5346 25.9531 33.4601 25.8785C33.3857 25.8039 33.2972 25.7447 33.1999 25.7043C33.1025 25.664 32.9982 25.6432 32.8928 25.6432H32.0912V15.176C32.0912 15.0708 32.0704 14.9666 32.0301 14.8695C31.9898 14.7723 31.9307 14.684 31.8563 14.6097C31.7818 14.5354 31.6934 14.4765 31.5962 14.4364C31.4989 14.3963 31.3947 14.3758 31.2896 14.376H28.032C27.9268 14.3758 27.8226 14.3963 27.7253 14.4364C27.6281 14.4765 27.5397 14.5354 27.4652 14.6097C27.3908 14.684 27.3317 14.7723 27.2914 14.8695C27.2511 14.9666 27.2303 15.0708 27.2303 15.176V25.6432H26.3184C25.8768 25.6432 25.5184 26.0032 25.5184 26.4464V31.1056C25.5184 31.5472 25.8768 31.9056 26.3184 31.9056H27.2303V41.4336H28.8336V31.9072H30.488V35.088H32.0912ZM17.5776 20.8832H19.1552V15.9792H17.5776V20.8832ZM17.5776 40.0496H19.1552V27.1168H17.5776V40.0496ZM15.9872 22.4864H20.7456V25.512H15.9872V22.488V22.4864ZM16.776 41.6528H19.9568C20.0621 41.653 20.1664 41.6324 20.2638 41.5922C20.3611 41.552 20.4496 41.4929 20.524 41.4185C20.5985 41.344 20.6576 41.2555 20.6978 41.1582C20.738 41.0608 20.7586 40.9565 20.7584 40.8512V27.1152H21.5472C21.6523 27.1154 21.7565 27.0948 21.8538 27.0547C21.951 27.0146 22.0394 26.9557 22.1139 26.8814C22.1883 26.8071 22.2474 26.7189 22.2877 26.6217C22.328 26.5245 22.3488 26.4204 22.3488 26.3152V21.6848C22.3488 21.4726 22.2645 21.2691 22.1144 21.1191C21.9644 20.9691 21.7609 20.8848 21.5488 20.8848H20.7584V15.1744C20.7584 14.9622 20.6741 14.7587 20.524 14.6087C20.374 14.4587 20.1705 14.3744 19.9584 14.3744H16.7744C16.5622 14.3744 16.3587 14.4587 16.2087 14.6087C16.0586 14.7587 15.9744 14.9622 15.9744 15.1744V20.8816H15.184C15.0786 20.8814 14.9743 20.902 14.8769 20.9422C14.7796 20.9824 14.6911 21.0414 14.6167 21.1159C14.5422 21.1904 14.4831 21.2788 14.4429 21.3762C14.4027 21.4735 14.3821 21.5778 14.3824 21.6832V26.312C14.3821 26.4172 14.4027 26.5214 14.4428 26.6186C14.4829 26.7159 14.5418 26.8042 14.6161 26.8787C14.6904 26.9532 14.7787 27.0122 14.8758 27.0525C14.973 27.0928 15.0772 27.1136 15.1824 27.1136H15.9728V40.8496C15.9728 41.0617 16.057 41.2652 16.2071 41.4153C16.3571 41.5653 16.5606 41.6496 16.7728 41.6496L16.776 41.6528Z" fill="white"/>
</g>
<defs>
<linearGradient id="paint0_linear_7417_727" x1="0" y1="6400" x2="6400" y2="0" gradientUnits="userSpaceOnUse">
<stop stop-color="#B0084D"/>
<stop offset="1" stop-color="#FF4F8B"/>
</linearGradient>
<clipPath id="clip0_7417_727">
<rect width="64" height="64" fill="white"/>
</clipPath>
</defs>
</svg>
