<svg width="64" height="64" viewBox="0 0 64 64" fill="none" xmlns="http://www.w3.org/2000/svg">
<g clip-path="url(#clip0_7417_697)">
<path fill-rule="evenodd" clip-rule="evenodd" d="M0 0H64V64H0V0Z" fill="url(#paint0_linear_7417_697)"/>
<path fill-rule="evenodd" clip-rule="evenodd" d="M44.8001 32.8V42.4C44.8001 42.6122 44.7158 42.8157 44.5658 42.9657C44.4158 43.1157 44.2123 43.2 44.0001 43.2H20.0001C19.7879 43.2 19.5844 43.1157 19.4344 42.9657C19.2844 42.8157 19.2001 42.6122 19.2001 42.4V32.8C19.2001 32.5879 19.2844 32.3844 19.4344 32.2343C19.5844 32.0843 19.7879 32 20.0001 32H25.6001V33.6H20.8001V41.6H43.2001V33.6H38.4001V32H44.0001C44.2123 32 44.4158 32.0843 44.5658 32.2343C44.7158 32.3844 44.8001 32.5879 44.8001 32.8ZM52.8001 47.7712C52.8003 47.8013 52.7945 47.8312 52.7831 47.859C52.7717 47.8869 52.7548 47.9122 52.7336 47.9335C52.7123 47.9548 52.687 47.9716 52.6591 47.983C52.6313 47.9945 52.6014 48.0002 52.5713 48H49.6001V29.6C49.6001 28.2768 48.5233 27.2 47.2001 27.2H16.7505C15.4273 27.2 14.4001 28.2768 14.4001 29.6V48H11.4289C11.3988 48.0002 11.3689 47.9945 11.3411 47.983C11.3132 47.9716 11.2879 47.9548 11.2666 47.9335C11.2453 47.9122 11.2285 47.8869 11.2171 47.859C11.2057 47.8312 11.1999 47.8013 11.2001 47.7712V26.2864C11.2005 25.6802 11.4415 25.0989 11.8702 24.6702C12.2989 24.2415 12.8802 24.0004 13.4865 24H50.5137C51.12 24.0004 51.7013 24.2415 52.13 24.6702C52.5586 25.0989 52.7997 25.6802 52.8001 26.2864V47.7712ZM15.9505 46.4V29.6C15.9505 29.3879 16.0348 29.1844 16.1848 29.0343C16.3348 28.8843 16.5383 28.8 16.7505 28.8H47.2001C47.4123 28.8 47.6158 28.8843 47.7658 29.0343C47.9158 29.1844 48.0001 29.3879 48.0001 29.6V46.4H15.9505ZM43.6689 22.4H20.3313L23.5313 19.2H40.4689L43.6689 22.4ZM20.2977 16.7808C20.7313 16.2848 21.3585 16 22.0177 16H41.9825C42.6417 16 43.2689 16.2848 43.7201 16.8L48.9633 22.4H45.9313L41.3665 17.8336C41.2158 17.6843 41.0123 17.6003 40.8001 17.6H23.2001C22.9879 17.6003 22.7844 17.6843 22.6337 17.8336L18.0689 22.4H15.0369L20.2977 16.7808ZM51.2225 22.472L44.9057 15.728C44.5414 15.3109 44.0921 14.9765 43.5879 14.7475C43.0837 14.5184 42.5363 14.3999 41.9825 14.4H22.0177C20.8977 14.4 19.8321 14.8832 19.1105 15.7072L12.7761 22.472C11.8851 22.638 11.0801 23.11 10.5002 23.8065C9.92031 24.5029 9.60193 25.3801 9.6001 26.2864V47.7712C9.6001 48.7792 10.4209 49.6 11.4289 49.6H15.2001C15.4123 49.6 15.6158 49.5157 15.7658 49.3657C15.9158 49.2157 16.0001 49.0122 16.0001 48.8V48H48.0001V48.8C48.0001 49.0122 48.0844 49.2157 48.2344 49.3657C48.3844 49.5157 48.5879 49.6 48.8001 49.6H52.5713C53.5793 49.6 54.4001 48.7792 54.4001 47.7712V26.2864C54.3985 25.3798 54.08 24.5023 53.4997 23.8057C52.9195 23.1092 52.1139 22.6374 51.2225 22.472ZM28.8001 36.8H35.2001V33.6H28.8001V36.8ZM28.0001 38.4H36.0001C36.2123 38.4 36.4158 38.3157 36.5658 38.1657C36.7158 38.0157 36.8001 37.8122 36.8001 37.6V32.8C36.8001 32.5879 36.7158 32.3844 36.5658 32.2343C36.4158 32.0843 36.2123 32 36.0001 32H28.0001C27.7879 32 27.5844 32.0843 27.4344 32.2343C27.2844 32.3844 27.2001 32.5879 27.2001 32.8V37.6C27.2001 37.8122 27.2844 38.0157 27.4344 38.1657C27.5844 38.3157 27.7879 38.4 28.0001 38.4Z" fill="white"/>
</g>
<defs>
<linearGradient id="paint0_linear_7417_697" x1="0" y1="6400" x2="6400" y2="0" gradientUnits="userSpaceOnUse">
<stop stop-color="#1B660F"/>
<stop offset="1" stop-color="#6CAE3E"/>
</linearGradient>
<clipPath id="clip0_7417_697">
<rect width="64" height="64" fill="white"/>
</clipPath>
</defs>
</svg>
