<svg width="64" height="64" viewBox="0 0 64 64" fill="none" xmlns="http://www.w3.org/2000/svg">
<g clip-path="url(#clip0_7417_693)">
<path fill-rule="evenodd" clip-rule="evenodd" d="M0 0H64V64H0V0Z" fill="url(#paint0_linear_7417_693)"/>
<path fill-rule="evenodd" clip-rule="evenodd" d="M28.8001 16H35.2001V14.4H28.8001V16ZM22.4001 33.6H33.6001V35.2H21.6001C21.3879 35.2 21.1844 35.1157 21.0344 34.9656C20.8844 34.8156 20.8001 34.6121 20.8001 34.4V24.8C20.8001 24.5878 20.8844 24.3843 21.0344 24.2343C21.1844 24.0842 21.3879 24 21.6001 24H44.0001C44.2123 24 44.4158 24.0842 44.5658 24.2343C44.7158 24.3843 44.8001 24.5878 44.8001 24.8V30.4H43.2001V25.6H22.4001V33.6ZM54.4001 16.1232V33.6H52.8001V16.1232C52.8001 14.2912 51.3905 12.8 49.6577 12.8H14.3425C12.6097 12.8 11.2001 14.2912 11.2001 16.1232V41.4784C11.2001 43.3104 12.6097 44.8 14.3425 44.8H31.9793V46.4H14.3425C11.7281 46.4 9.6001 44.192 9.6001 41.4784V16.1232C9.6001 13.4096 11.7281 11.2 14.3425 11.2H49.6577C52.2721 11.2 54.4001 13.4096 54.4001 16.1232ZM17.0241 40H32.0001V41.6H17.0241C15.5761 41.6 14.4001 40.432 14.4001 38.9968V18.6048C14.4001 17.168 15.5761 16 17.0241 16H24.8001C24.9487 16.0001 25.0943 16.0417 25.2207 16.1199C25.347 16.1982 25.449 16.3101 25.5153 16.4432L26.8945 19.2H37.1057L38.4849 16.4432C38.5512 16.3101 38.6532 16.1982 38.7795 16.1199C38.9059 16.0417 39.0515 16.0001 39.2001 16H46.9761C48.4241 16 49.6001 17.168 49.6001 18.6048V32H48.0001V18.6048C47.9971 18.3358 47.8877 18.0791 47.6957 17.8907C47.5038 17.7024 47.245 17.5978 46.9761 17.6H39.6945L38.3153 20.3584C38.2489 20.4912 38.1469 20.6029 38.0205 20.6809C37.8942 20.7589 37.7486 20.8001 37.6001 20.8H26.4001C26.2516 20.8001 26.106 20.7589 25.9797 20.6809C25.8533 20.6029 25.7513 20.4912 25.6849 20.3584L24.3057 17.6H17.0241C16.7552 17.5978 16.4964 17.7024 16.3044 17.8907C16.1125 18.0791 16.0031 18.3358 16.0001 18.6048V38.9968C16.0001 39.5504 16.4593 40 17.0241 40ZM44.0001 45.2656C43.2467 45.2647 42.5244 44.9651 41.9917 44.4323C41.459 43.8996 41.1593 43.1773 41.1585 42.424C41.1585 40.8576 42.4337 39.5824 44.0001 39.5824C45.5665 39.5824 46.8417 40.8576 46.8417 42.424C46.8417 43.9904 45.5665 45.2656 44.0001 45.2656ZM44.0001 37.9824C42.8225 37.9836 41.6935 38.452 40.8608 39.2847C40.0281 40.1174 39.5598 41.2464 39.5585 42.424C39.5598 43.6015 40.0281 44.7305 40.8608 45.5632C41.6935 46.3959 42.8225 46.8643 44.0001 46.8656C45.1777 46.8643 46.3067 46.3959 47.1394 45.5632C47.9721 44.7305 48.4404 43.6015 48.4417 42.424C48.4404 41.2464 47.9721 40.1174 47.1394 39.2847C46.3067 38.452 45.1777 37.9836 44.0001 37.9824ZM52.3041 43.3872L51.6385 43.3488C51.45 43.3397 51.2644 43.397 51.1138 43.5108C50.9632 43.6245 50.8573 43.7874 50.8145 43.9712C50.6385 44.744 50.3361 45.4752 49.9121 46.1488C49.8115 46.3087 49.7707 46.4992 49.7971 46.6863C49.8234 46.8734 49.9152 47.0452 50.0561 47.1712L50.5537 47.6144L49.1905 48.976L48.7505 48.4816C48.6242 48.3401 48.4517 48.2481 48.2638 48.222C48.076 48.196 47.885 48.2375 47.7249 48.3392C47.0561 48.7625 46.3195 49.0677 45.5473 49.2416C45.3626 49.2833 45.1988 49.3891 45.0848 49.5403C44.9708 49.6915 44.9142 49.8781 44.9249 50.0672L44.9633 50.728H43.0369L43.0753 50.0656C43.0854 49.8767 43.0285 49.6903 42.9146 49.5393C42.8007 49.3883 42.6372 49.2823 42.4529 49.24C41.6807 49.0653 40.9442 48.7595 40.2753 48.336C40.1147 48.2365 39.9243 48.1964 39.7372 48.2227C39.5502 48.249 39.3782 48.34 39.2513 48.48L38.8097 48.976L37.4465 47.616L37.9441 47.1728C38.0854 47.0467 38.1774 46.8746 38.2038 46.6871C38.2301 46.4996 38.1892 46.3089 38.0881 46.1488C37.6651 45.4798 37.3598 44.7433 37.1857 43.9712C37.1443 43.7863 37.0385 43.6223 36.8873 43.5083C36.736 43.3942 36.5492 43.3377 36.3601 43.3488L35.6961 43.3856V41.4608L36.3633 41.4992C36.5525 41.5129 36.7403 41.4575 36.8918 41.3434C37.0433 41.2292 37.1483 41.064 37.1873 40.8784C37.3649 40.104 37.6673 39.3728 38.0929 38.704C38.1938 38.5435 38.2346 38.3525 38.2083 38.1648C38.1819 37.9772 38.09 37.8048 37.9489 37.6784L37.4465 37.232L38.8097 35.8704L39.2545 36.3712C39.5137 36.6608 39.9473 36.7232 40.2785 36.5152C40.9505 36.0912 41.6817 35.7888 42.4529 35.6144C42.6376 35.5726 42.8014 35.4668 42.9154 35.3156C43.0294 35.1644 43.086 34.9778 43.0753 34.7888L43.0369 34.12H44.9633L44.9249 34.7904C44.9142 34.9794 44.9708 35.166 45.0848 35.3172C45.1988 35.4684 45.3626 35.5742 45.5473 35.616C46.3201 35.7904 47.0513 36.0944 47.7185 36.5168C47.8788 36.6182 48.0699 36.6595 48.2577 36.6331C48.4456 36.6067 48.618 36.5145 48.7441 36.3728L49.1905 35.8704L50.5537 37.232L50.0529 37.6768C49.9119 37.803 49.8201 37.975 49.7937 38.1624C49.7673 38.3498 49.8082 38.5405 49.9089 38.7008C50.3345 39.3744 50.6369 40.1056 50.8129 40.8768C50.8528 41.0621 50.9579 41.2269 51.1092 41.3411C51.2605 41.4554 51.4477 41.5115 51.6369 41.4992L52.3041 41.4608V43.3872ZM53.0593 39.816L52.1953 39.8656C52.042 39.373 51.8444 38.8953 51.6049 38.4384L52.2497 37.8624C52.3317 37.7903 52.398 37.7021 52.4444 37.6033C52.4908 37.5045 52.5164 37.3972 52.5196 37.2881C52.5227 37.1789 52.5034 37.0703 52.4627 36.969C52.4221 36.8677 52.361 36.7758 52.2833 36.6992L49.7233 34.1408C49.6464 34.0637 49.5546 34.0033 49.4534 33.963C49.3523 33.9228 49.244 33.9037 49.1352 33.9068C49.0265 33.91 48.9195 33.9353 48.8208 33.9813C48.7222 34.0273 48.634 34.093 48.5617 34.1744L47.9825 34.8224C47.5272 34.5829 47.0511 34.3853 46.5601 34.232L46.6081 33.3648C46.6147 33.256 46.5989 33.1471 46.5617 33.0447C46.5245 32.9423 46.4667 32.8486 46.3918 32.7695C46.317 32.6903 46.2268 32.6273 46.1266 32.5844C46.0265 32.5415 45.9186 32.5195 45.8097 32.52H42.1905C42.0816 32.5195 41.9737 32.5415 41.8736 32.5844C41.7734 32.6273 41.6832 32.6903 41.6084 32.7695C41.5335 32.8486 41.4757 32.9423 41.4385 33.0447C41.4013 33.1471 41.3855 33.256 41.3921 33.3648L41.4401 34.2304C40.9486 34.3839 40.4721 34.5815 40.0161 34.8208L39.4385 34.1744C39.3664 34.093 39.2783 34.0274 39.1798 33.9814C39.0813 33.9354 38.9744 33.9102 38.8657 33.9072C38.6476 33.911 38.4383 33.994 38.2769 34.1408L35.7169 36.6992C35.6405 36.7765 35.5805 36.8686 35.5407 36.9698C35.5008 37.071 35.4819 37.1792 35.485 37.2879C35.4882 37.3966 35.5133 37.5036 35.5589 37.6023C35.6046 37.7011 35.6697 37.7895 35.7505 37.8624L36.3969 38.44C36.1569 38.896 35.9601 39.3712 35.8049 39.8656L34.9409 39.816C34.7228 39.8133 34.5113 39.89 34.3457 40.032C34.2666 40.1069 34.2037 40.1972 34.1608 40.2974C34.1179 40.3975 34.0958 40.5054 34.0961 40.6144V44.2336C34.0957 44.3425 34.1176 44.4504 34.1605 44.5505C34.2034 44.6506 34.2664 44.7409 34.3456 44.8157C34.4248 44.8905 34.5184 44.9483 34.6208 44.9855C34.7232 45.0227 34.8322 45.0385 34.9409 45.032L35.8017 44.9824C35.9553 45.4752 36.1521 45.9536 36.3937 46.4128L35.7505 46.9856C35.6688 47.0576 35.6027 47.1457 35.5564 47.2444C35.5101 47.343 35.4846 47.4501 35.4815 47.5591C35.4783 47.668 35.4976 47.7764 35.5381 47.8776C35.5786 47.9787 35.6395 48.0705 35.7169 48.1472L38.2769 50.7072C38.4374 50.8554 38.6472 50.9387 38.8657 50.9408C38.9744 50.9377 39.0813 50.9125 39.1798 50.8665C39.2783 50.8205 39.3664 50.7549 39.4385 50.6736L40.0129 50.032C40.4705 50.272 40.9489 50.4704 41.4401 50.624L41.3921 51.4831C41.386 51.5918 41.4021 51.7005 41.4395 51.8027C41.4769 51.9049 41.5347 51.9984 41.6094 52.0774C41.6841 52.1565 41.7742 52.2195 41.8741 52.2626C41.974 52.3057 42.0817 52.3279 42.1905 52.328H45.8097C45.9185 52.3279 46.0261 52.3057 46.1261 52.2626C46.226 52.2195 46.316 52.1565 46.3908 52.0774C46.4655 51.9984 46.5233 51.9049 46.5607 51.8027C46.5981 51.7005 46.6142 51.5918 46.6081 51.4831L46.5601 50.6256C47.0529 50.472 47.5313 50.2736 47.9889 50.032L48.5617 50.6736C48.6338 50.7553 48.7219 50.8213 48.8205 50.8676C48.9192 50.9139 49.0263 50.9394 49.1352 50.9426C49.2441 50.9457 49.3525 50.9264 49.4537 50.8859C49.5549 50.8454 49.6466 50.7846 49.7233 50.7072L52.2833 48.1472C52.3601 48.0701 52.4204 47.9783 52.4605 47.8772C52.5006 47.7761 52.5196 47.6678 52.5165 47.5591C52.5133 47.4504 52.4881 47.3435 52.4422 47.2448C52.3963 47.1462 52.3308 47.058 52.2497 46.9856L51.6065 46.4112C51.8465 45.9536 52.0433 45.4752 52.1969 44.9824L53.0593 45.032C53.1679 45.038 53.2767 45.0219 53.3788 44.9845C53.481 44.9472 53.5745 44.8894 53.6536 44.8146C53.7327 44.7399 53.7957 44.6498 53.8387 44.5499C53.8818 44.45 53.904 44.3424 53.9041 44.2336V40.6144C53.9043 40.5054 53.8823 40.3975 53.8394 40.2974C53.7965 40.1972 53.7336 40.1069 53.6545 40.032C53.4914 39.8858 53.2781 39.8084 53.0593 39.816Z" fill="white"/>
</g>
<defs>
<linearGradient id="paint0_linear_7417_693" x1="0" y1="6400" x2="6400" y2="0" gradientUnits="userSpaceOnUse">
<stop stop-color="#1B660F"/>
<stop offset="1" stop-color="#6CAE3E"/>
</linearGradient>
<clipPath id="clip0_7417_693">
<rect width="64" height="64" fill="white"/>
</clipPath>
</defs>
</svg>
