<svg width="64" height="64" viewBox="0 0 64 64" fill="none" xmlns="http://www.w3.org/2000/svg">
<g clip-path="url(#clip0_7417_735)">
<path fill-rule="evenodd" clip-rule="evenodd" d="M0 0H64V64H0V0Z" fill="url(#paint0_linear_7417_735)"/>
<path fill-rule="evenodd" clip-rule="evenodd" d="M26.7312 54.4H14.888L9.70882 44.8L14.888 35.2H26.7312L31.9088 44.8L26.7312 54.4ZM27.9136 34.0208C27.8449 33.8939 27.7433 33.7878 27.6194 33.7137C27.4955 33.6397 27.3539 33.6004 27.2096 33.6H14.4096C14.265 33.6001 14.1231 33.6393 13.9989 33.7133C13.8748 33.7874 13.7729 33.8936 13.704 34.0208L8.09602 44.4208C8.033 44.5372 8 44.6676 8 44.8C8 44.9324 8.033 45.0627 8.09602 45.1792L13.704 55.5792C13.7729 55.7063 13.8748 55.8126 13.9989 55.8866C14.1231 55.9607 14.265 55.9998 14.4096 56H27.2096C27.3539 55.9996 27.4955 55.9603 27.6194 55.8862C27.7433 55.8122 27.8449 55.7061 27.9136 55.5792L33.5232 45.1792C33.5854 45.0625 33.6179 44.9322 33.6179 44.8C33.6179 44.6677 33.5854 44.5375 33.5232 44.4208L27.9136 34.0208ZM13.8816 21.6L16.8848 26.8C16.9311 26.8817 16.9918 26.9543 17.064 27.0144L19.0192 30.4H14.888L10.1408 21.6H13.8816ZM14.888 11.2H26.7312L31.4784 20H27.7376L24.7344 14.8C24.6643 14.6783 24.5634 14.5772 24.4417 14.5069C24.3201 14.4367 24.1821 14.3998 24.0416 14.4H17.576C17.4358 14.3999 17.2981 14.4369 17.1767 14.5071C17.0553 14.5774 16.9546 14.6784 16.8848 14.8L13.8816 20H10.1408L14.888 11.2ZM27.1152 29.688L24.8832 26.544L27.7376 21.6H31.4784L27.1152 29.688ZM18.096 25.6L15.296 20.752L18.0384 16H23.5792L26.352 20.8L23.5792 25.6H18.096ZM20.8672 30.4L19.0192 27.2H23.3872L25.6592 30.4H20.8672ZM13.704 31.5792C13.7729 31.7063 13.8748 31.8126 13.9989 31.8866C14.1231 31.9607 14.265 31.9998 14.4096 32H27.2096C27.3539 31.9996 27.4955 31.9603 27.6194 31.8862C27.7433 31.8122 27.8449 31.7061 27.9136 31.5792L33.5232 21.1792C33.5854 21.0625 33.6179 20.9322 33.6179 20.8C33.6179 20.6677 33.5854 20.5375 33.5232 20.4208L27.9136 10.0208C27.8449 9.89385 27.7433 9.78779 27.6194 9.71374C27.4955 9.63969 27.3539 9.60039 27.2096 9.59998H14.4096C14.265 9.60011 14.1231 9.63927 13.9989 9.71334C13.8748 9.7874 13.7729 9.89362 13.704 10.0208L8.09602 20.4208C8.033 20.5372 8 20.6676 8 20.8C8 20.9324 8.033 21.0627 8.09602 21.1792L13.704 31.5792ZM23.5792 49.6H18.0384L15.2672 44.8L18.0384 40H23.5792L26.352 44.8L23.5792 49.6ZM24.0416 38.4H17.576C17.4358 38.3999 17.2981 38.4369 17.1767 38.5071C17.0553 38.5774 16.9546 38.6784 16.8848 38.8L13.6512 44.4C13.5805 44.5214 13.5433 44.6594 13.5433 44.8C13.5433 44.9405 13.5805 45.0785 13.6512 45.2L16.8848 50.8C17.0272 51.048 17.2912 51.2 17.576 51.2H24.0416C24.1821 51.2001 24.3201 51.1632 24.4417 51.093C24.5634 51.0228 24.6643 50.9217 24.7344 50.8L27.9664 45.2C28.0371 45.0785 28.0743 44.9405 28.0743 44.8C28.0743 44.6594 28.0371 44.5214 27.9664 44.4L24.7344 38.8C24.6643 38.6783 24.5634 38.5772 24.4417 38.5069C24.3201 38.4367 24.1821 38.3998 24.0416 38.4ZM37.2688 22.4H49.1504L53.8256 30.4H50.0368L47.0752 25.9568C47.0023 25.847 46.9034 25.757 46.7873 25.6947C46.6711 25.6324 46.5414 25.5999 46.4096 25.6H40.0096C39.8778 25.5999 39.7481 25.6324 39.632 25.6947C39.5158 25.757 39.4169 25.847 39.344 25.9568L36.3808 30.4H32.5936L37.2688 22.4ZM30.5056 31.5984C30.5759 31.7204 30.6771 31.8218 30.799 31.8923C30.9209 31.9628 31.0592 31.9999 31.2 32H36.8096C36.9414 32 37.0711 31.9675 37.1873 31.9052C37.3034 31.843 37.4023 31.753 37.4752 31.6432L40.4368 27.2H45.9808L48.944 31.6432C49.0928 31.8672 49.3424 32 49.6096 32H55.2192C55.3598 31.9997 55.4979 31.9624 55.6195 31.8918C55.7412 31.8212 55.842 31.7198 55.9119 31.5978C55.9819 31.4758 56.0184 31.3375 56.0179 31.1969C56.0173 31.0562 55.9797 30.9182 55.9088 30.7968L50.2992 21.1968C50.2292 21.0759 50.1287 20.9756 50.0076 20.9059C49.8866 20.8363 49.7493 20.7997 49.6096 20.8H36.8096C36.6698 20.7999 36.5324 20.8366 36.4111 20.9062C36.2898 20.9758 36.1889 21.076 36.1184 21.1968L30.5088 30.7968C30.4383 30.9185 30.4009 31.0565 30.4003 31.1971C30.3998 31.3378 30.4361 31.4761 30.5056 31.5984ZM49.1504 43.216H37.2688L32.592 35.184H36.3792L39.344 39.6432C39.417 39.7529 39.516 39.8428 39.6321 39.9051C39.7482 39.9673 39.8779 39.9999 40.0096 40H46.4096C46.5414 39.9999 46.6711 39.9673 46.7872 39.9051C46.9033 39.8428 47.0022 39.7529 47.0752 39.6432L50.0384 35.184H53.8272L49.1504 43.216ZM55.2192 33.584H49.6096C49.4779 33.584 49.3482 33.6166 49.2321 33.6789C49.116 33.7411 49.017 33.8311 48.944 33.9408L45.9792 38.4H40.4384L37.4752 33.9408C37.4022 33.8311 37.3033 33.7411 37.1872 33.6789C37.0711 33.6166 36.9414 33.584 36.8096 33.584H31.2C31.0593 33.5836 30.921 33.6204 30.7991 33.6907C30.6772 33.761 30.576 33.8623 30.5059 33.9843C30.4357 34.1062 30.399 34.2446 30.3995 34.3853C30.4001 34.526 30.4378 34.6641 30.5088 34.7856L36.1184 44.4192C36.1886 44.5402 36.2895 44.6406 36.4108 44.7102C36.5322 44.7799 36.6697 44.8163 36.8096 44.816H49.6096C49.7493 44.8164 49.8866 44.7799 50.0077 44.7102C50.1288 44.6406 50.2294 44.5402 50.2992 44.4192L55.9088 34.7856C55.9798 34.6642 56.0175 34.5263 56.0181 34.3857C56.0187 34.2451 55.9822 34.1069 55.9122 33.985C55.8422 33.863 55.7413 33.7617 55.6196 33.6913C55.4979 33.6209 55.3598 33.5839 55.2192 33.584Z" fill="white"/>
</g>
<defs>
<linearGradient id="paint0_linear_7417_735" x1="0" y1="6400" x2="6400" y2="0" gradientUnits="userSpaceOnUse">
<stop stop-color="#B0084D"/>
<stop offset="1" stop-color="#FF4F8B"/>
</linearGradient>
<clipPath id="clip0_7417_735">
<rect width="64" height="64" fill="white"/>
</clipPath>
</defs>
</svg>
