<svg width="64" height="64" viewBox="0 0 64 64" fill="none" xmlns="http://www.w3.org/2000/svg">
<g clip-path="url(#clip0_7417_731)">
<path fill-rule="evenodd" clip-rule="evenodd" d="M0 0H64V64H0V0Z" fill="url(#paint0_linear_7417_731)"/>
<path fill-rule="evenodd" clip-rule="evenodd" d="M46.3776 51.2016H51.2032V46.3392H46.3776V51.2016ZM30.3376 51.2016H35.2608V46.3392H30.3376V51.2016ZM14.3968 51.2016H19.256V46.3392H14.3968V51.2016ZM52.0016 44.7408H49.6048V40.7456C49.6048 40.5337 49.5208 40.3305 49.3711 40.1805C49.2214 40.0305 49.0183 39.9461 48.8064 39.9456H33.632V36.752H32.0352V39.9472H16.8608C16.4176 39.9472 16.0608 40.3056 16.0608 40.7472V44.7424H13.6C13.1584 44.7424 12.8016 45.1008 12.8016 45.5424V52C12.8016 52.44 13.1584 52.7984 13.6016 52.7984H20.056C20.2682 52.7984 20.4717 52.7142 20.6217 52.5641C20.7718 52.4141 20.856 52.2106 20.856 51.9984V45.5392C20.856 45.3271 20.7718 45.1236 20.6217 44.9736C20.4717 44.8235 20.2682 44.7392 20.056 44.7392H17.6608V41.5424H32.0368V44.7392H29.5408C29.3287 44.7392 29.1252 44.8235 28.9752 44.9736C28.8251 45.1236 28.7408 45.3271 28.7408 45.5392V52C28.7413 52.2119 28.8257 52.415 28.9757 52.5647C29.1257 52.7144 29.3289 52.7984 29.5408 52.7984H36.0624C36.504 52.7984 36.8608 52.44 36.8608 51.9984V45.5392C36.8608 45.0976 36.504 44.7392 36.0608 44.7392H33.632V41.5424H48.008V44.7392H45.5792C45.3671 44.7392 45.1636 44.8235 45.0136 44.9736C44.8635 45.1236 44.7792 45.3271 44.7792 45.5392V52C44.7797 52.2119 44.8641 52.415 45.0141 52.5647C45.1641 52.7144 45.3673 52.7984 45.5792 52.7984H52C52.2119 52.798 52.415 52.7135 52.5647 52.5636C52.7144 52.4136 52.7984 52.2103 52.7984 51.9984V45.5392C52.7984 45.3271 52.7142 45.1236 52.5641 44.9736C52.4141 44.8235 52.2106 44.7392 51.9984 44.7392L52.0016 44.7408ZM32.8592 14.464L40.52 17.6368L32.8352 21.472L25.1952 17.6384L32.8592 14.464ZM33.6544 33.024L33.6336 22.8592L41.6448 18.8608V28.272L33.6544 33.024ZM24.0736 18.864L32.0368 22.8592L32.0576 33.0208L24.0736 28.272V18.864ZM32.4496 35.1152C32.5741 35.1875 32.7154 35.2255 32.8592 35.2255C33.0031 35.2255 33.1444 35.1875 33.2688 35.1152L42.8528 29.4144C42.9716 29.3431 43.0698 29.2423 43.1379 29.1217C43.206 29.0011 43.2418 28.8649 43.2416 28.7264V17.5696C43.2416 17.412 43.1949 17.2578 43.1075 17.1266C43.0201 16.9954 42.8959 16.8929 42.7504 16.832L33.1664 12.8608C33.0694 12.8203 32.9652 12.7994 32.86 12.7994C32.7548 12.7994 32.6507 12.8203 32.5536 12.8608L22.9696 16.832C22.8239 16.8927 22.6993 16.995 22.6116 17.1263C22.5239 17.2575 22.477 17.4118 22.4768 17.5696V28.728C22.4768 29.0096 22.6256 29.272 22.8656 29.416L32.4496 35.1152Z" fill="white"/>
</g>
<defs>
<linearGradient id="paint0_linear_7417_731" x1="0" y1="6400" x2="6400" y2="0" gradientUnits="userSpaceOnUse">
<stop stop-color="#B0084D"/>
<stop offset="1" stop-color="#FF4F8B"/>
</linearGradient>
<clipPath id="clip0_7417_731">
<rect width="64" height="64" fill="white"/>
</clipPath>
</defs>
</svg>
