<svg width="64" height="64" viewBox="0 0 64 64" fill="none" xmlns="http://www.w3.org/2000/svg">
<g clip-path="url(#clip0_7417_688)">
<path fill-rule="evenodd" clip-rule="evenodd" d="M0 0H64V64H0V0Z" fill="url(#paint0_linear_7417_688)"/>
<path fill-rule="evenodd" clip-rule="evenodd" d="M28.8001 19.2H35.2001V17.6H28.8001V19.2ZM22.4001 36.8H41.6001V28.8H22.4001V36.8ZM42.4001 27.2H21.6001C21.3879 27.2 21.1844 27.2843 21.0344 27.4343C20.8844 27.5844 20.8001 27.7879 20.8001 28V37.6C20.8001 37.8122 20.8844 38.0157 21.0344 38.1657C21.1844 38.3157 21.3879 38.4 21.6001 38.4H42.4001C42.6123 38.4 42.8158 38.3157 42.9658 38.1657C43.1158 38.0157 43.2001 37.8122 43.2001 37.6V28C43.2001 27.7879 43.1158 27.5844 42.9658 27.4343C42.8158 27.2843 42.6123 27.2 42.4001 27.2ZM52.8001 44.6768C52.8001 46.5088 51.3905 48 49.6577 48H14.3425C12.6097 48 11.2001 46.5088 11.2001 44.6768V19.3232C11.2001 17.4912 12.6097 16 14.3425 16H49.6577C51.3905 16 52.8001 17.4912 52.8001 19.3232V44.6768ZM49.6577 14.4H14.3425C11.7281 14.4 9.6001 16.608 9.6001 19.3232V44.6768C9.6001 47.392 11.7281 49.6 14.3425 49.6H49.6577C52.2721 49.6 54.4001 47.392 54.4001 44.6768V19.3232C54.4001 16.608 52.2721 14.4 49.6577 14.4ZM48.0001 42.1968C47.9971 42.4656 47.8876 42.7222 47.6957 42.9103C47.5037 43.0984 47.2449 43.2026 46.9761 43.2H17.0241C16.7553 43.2026 16.4965 43.0984 16.3045 42.9103C16.1126 42.7222 16.0031 42.4656 16.0001 42.1968V21.8032C16.0001 21.2496 16.4593 20.8 17.0241 20.8H24.3057L25.6849 23.5584C25.7514 23.6911 25.8535 23.8027 25.9798 23.8807C26.1061 23.9587 26.2517 24 26.4001 24H37.6001C37.7485 24 37.8941 23.9587 38.0204 23.8807C38.1467 23.8027 38.2488 23.6911 38.3153 23.5584L39.6945 20.8H46.9761C47.5409 20.8 48.0001 21.2496 48.0001 21.8032V42.1968ZM46.9761 19.2H39.2001C39.0517 19.2 38.9061 19.2413 38.7798 19.3193C38.6535 19.3973 38.5514 19.5089 38.4849 19.6416L37.1057 22.4H26.8945L25.5153 19.6416C25.4488 19.5089 25.3467 19.3973 25.2204 19.3193C25.0941 19.2413 24.9485 19.2 24.8001 19.2H17.0241C15.5761 19.2 14.4001 20.368 14.4001 21.8032V42.1968C14.4001 43.632 15.5761 44.8 17.0241 44.8H46.9761C48.4241 44.8 49.6001 43.632 49.6001 42.1968V21.8032C49.6001 20.368 48.4241 19.2 46.9761 19.2Z" fill="white"/>
</g>
<defs>
<linearGradient id="paint0_linear_7417_688" x1="0" y1="6400" x2="6400" y2="0" gradientUnits="userSpaceOnUse">
<stop stop-color="#1B660F"/>
<stop offset="1" stop-color="#6CAE3E"/>
</linearGradient>
<clipPath id="clip0_7417_688">
<rect width="64" height="64" fill="white"/>
</clipPath>
</defs>
</svg>
