<svg width="433" height="433" viewBox="0 0 433 433" fill="none" xmlns="http://www.w3.org/2000/svg">
<g clip-path="url(#clip0_7401_1077)">
<path d="M139.894 194.828C131.419 194.828 121.958 198.093 119.975 208.84C119.764 209.981 120.52 210.526 121.25 210.693L129.936 211.734C130.74 211.694 131.285 210.819 131.441 209.996C132.182 206.298 135.224 204.553 138.623 204.553C140.457 204.553 142.517 205.182 143.603 206.869C144.848 208.747 144.759 211.301 144.759 213.469V214.743C139.597 215.336 132.801 215.696 127.968 217.871C122.391 220.35 118.474 225.394 118.474 232.809C118.474 242.311 124.296 247.054 131.793 247.054C138.122 247.054 141.621 245.568 146.501 240.454C148.121 242.863 148.639 243.956 151.597 246.476C151.924 246.663 152.301 246.741 152.675 246.7C153.049 246.658 153.401 246.5 153.679 246.246V246.361C155.458 244.738 158.693 241.788 160.513 240.224C161.239 239.617 161.08 238.616 160.513 237.793C158.886 235.488 157.155 233.628 157.155 229.341V215.095C157.155 209.062 157.667 203.5 153.335 199.346C149.914 195.985 144.222 194.828 139.894 194.828ZM256.626 194.828C248.147 194.828 238.694 198.093 236.708 208.84C236.496 209.981 237.249 210.526 237.982 210.693L246.669 211.734C247.473 211.694 248.021 210.819 248.173 209.996C248.918 206.298 251.957 204.553 255.355 204.553C257.193 204.553 259.25 205.182 260.336 206.869C261.577 208.747 261.377 211.301 261.377 213.469V214.743C256.215 215.336 249.537 215.696 244.701 217.871C239.12 220.35 235.207 225.394 235.207 232.809C235.207 242.311 241.032 247.054 248.525 247.054C254.848 247.054 258.346 245.568 263.234 240.454C264.849 242.863 265.372 243.956 268.329 246.476C268.996 246.832 269.823 246.795 270.412 246.246V246.361C272.191 244.738 275.426 241.788 277.245 240.224C277.968 239.617 277.801 238.616 277.245 237.793C275.618 235.488 273.888 233.628 273.888 229.341V215.095C273.888 209.062 274.277 203.5 269.952 199.346C266.528 195.985 260.955 194.828 256.626 194.828ZM190.963 195.292C185.486 195.292 181.425 198.056 179.268 203.978H179.153V197.841C179.124 197.421 178.943 197.024 178.645 196.726C178.347 196.428 177.951 196.248 177.53 196.218H169.192C168.733 196.225 168.295 196.41 167.97 196.735C167.646 197.059 167.46 197.497 167.454 197.956V244.857C167.493 245.274 167.677 245.664 167.973 245.96C168.269 246.257 168.66 246.44 169.077 246.48H177.993C178.452 246.475 178.892 246.29 179.217 245.965C179.542 245.641 179.726 245.201 179.731 244.742V219.843C179.731 214.414 179.468 206.987 185.868 206.987C192.186 206.987 191.312 214.617 191.312 219.843V244.742C191.312 245.628 192.034 246.421 192.935 246.48H201.851C202.31 246.475 202.75 246.29 203.075 245.965C203.399 245.641 203.584 245.201 203.589 244.742V219.843C203.589 217.178 203.481 213.298 204.401 210.926C205.316 208.555 207.565 206.991 209.729 206.991C212.309 206.991 214.276 207.891 214.94 211.045C215.355 212.92 215.17 217.875 215.17 219.846V244.746C215.17 245.631 215.892 246.424 216.793 246.484H225.709C226.168 246.479 226.608 246.294 226.932 245.969C227.257 245.644 227.442 245.205 227.447 244.746V215.099C227.447 210.063 227.955 204.345 225.131 200.391C222.637 196.841 218.56 195.295 214.825 195.295C209.585 195.295 204.712 198.06 202.551 203.982C200.054 198.06 196.533 195.292 190.963 195.292ZM342.556 195.292C329.671 195.292 322.523 206.62 322.523 221.232C322.523 235.744 329.593 247.403 342.556 247.403C355.026 247.403 362.938 236.011 362.938 221.692C362.938 206.895 355.771 195.292 342.556 195.292ZM393.392 195.292C387.237 195.292 383.72 198.371 381.234 204.786H381.119V197.604C380.959 196.878 380.274 196.374 379.496 196.329H371.272C370.848 196.32 370.435 196.468 370.113 196.747C369.792 197.025 369.586 197.412 369.535 197.834V244.734C369.543 245.173 369.713 245.594 370.013 245.915C370.313 246.235 370.72 246.434 371.158 246.472H379.959C380.418 246.466 380.856 246.28 381.18 245.956C381.505 245.631 381.69 245.193 381.697 244.734V219.491C381.697 216.326 381.964 213.439 383.201 210.574C384.202 208.303 386.133 206.869 388.297 206.869C394.441 206.869 393.856 214.358 393.856 219.491V244.968C393.913 245.367 394.105 245.734 394.4 246.008C394.696 246.282 395.077 246.446 395.479 246.472H404.395C405.269 246.472 406.029 245.805 406.133 244.968V215.436C406.133 210.897 406.144 204.59 403.817 200.843C401.323 196.8 397.376 195.292 393.392 195.292ZM286.388 196.103C285.483 196.103 284.768 196.822 284.764 197.841V204.556C284.768 205.56 285.461 206.287 286.388 206.294H301.674L284.186 232.12C283.119 233.784 283.03 235.67 283.03 236.752V243.586C283.03 244.571 284.101 245.642 285.113 245.09C295.078 239.65 307.021 240.132 316.034 244.975C317.127 245.572 318.235 244.453 318.235 243.471V236.289C318.21 235.759 318.047 235.246 317.762 234.799C317.477 234.351 317.081 233.986 316.612 233.739C311.498 230.797 305.561 229.896 299.936 230.034L315.107 207.799C316.512 205.801 317.298 204.597 317.309 203.63V197.841C317.309 196.844 316.627 196.103 315.686 196.103H286.388ZM342.556 204.905C345.38 204.905 347.463 206.165 348.463 209.422C349.62 213.176 349.738 217.864 349.738 221.814C349.738 227.832 349.456 237.793 342.556 237.793C335.578 237.793 335.608 225.461 335.608 219.728C335.608 214.01 335.99 204.905 342.556 204.905ZM144.641 222.044V224.012C144.641 227.573 144.771 230.571 143.018 233.739C141.602 236.315 139.379 237.908 136.881 237.908C133.472 237.908 131.437 235.144 131.437 231.193C131.441 223.404 138.208 222.044 144.641 222.044ZM261.373 222.044V224.012C261.373 227.573 261.503 230.571 259.75 233.739C258.335 236.315 256.122 237.908 253.613 237.908C250.2 237.908 248.17 235.144 248.17 231.193C248.173 223.404 254.933 222.044 261.373 222.044Z" fill="#F5F5F5"/>
<path d="M319.162 247.984V254.699H323.679V247.984H319.162ZM188.184 249.141V296.968H192.353V292.684C193.242 294.381 194.254 295.652 195.481 296.504C196.704 297.357 198.108 297.779 199.65 297.779C202.711 297.779 205.353 296.215 207.639 293.032C209.926 289.849 211.115 285.235 211.115 279.365C211.115 275.522 210.623 272.339 209.611 269.637C208.599 266.943 207.247 264.938 205.557 263.615C203.867 262.293 201.947 261.533 199.883 261.533C198.448 261.518 197.04 261.919 195.829 262.689C194.625 263.46 193.65 264.716 192.701 266.28V249.141H188.184ZM231.034 260.377C227.892 260.377 225.398 261.307 223.623 263.156C221.847 265.001 220.958 267.384 220.958 270.338C220.958 272.054 221.343 273.503 221.999 274.855C222.655 276.208 223.6 277.294 224.779 278.098C225.965 278.902 228.329 279.958 231.842 281.107C234.273 281.889 235.726 282.556 236.359 283.075C237.278 283.834 237.749 284.831 237.749 286.202C237.749 287.788 237.201 289.111 236.126 290.138C235.055 291.172 233.565 291.642 231.609 291.642C229.652 291.642 228.04 291.094 226.861 289.904C225.683 288.715 225.046 286.906 224.779 284.461L220.261 285.387C221.28 292.817 224.986 296.508 231.379 296.504C234.788 296.504 237.397 295.537 239.368 293.495C241.34 291.453 242.378 288.696 242.378 285.387C242.378 283.601 242.063 282.052 241.451 280.755C240.84 279.458 239.998 278.498 238.902 277.746C237.801 276.997 235.348 275.997 231.605 274.737C228.885 273.784 227.291 273.088 226.743 272.654C225.82 271.92 225.353 270.92 225.353 269.645C225.353 268.34 225.783 267.236 226.743 266.402C227.703 265.568 229.181 265.127 231.145 265.127C234.599 265.127 236.53 267.025 236.934 270.801L241.336 270.104C241.032 267.714 240.51 265.828 239.713 264.546C238.916 263.263 237.738 262.181 236.237 261.418C234.74 260.658 233.017 260.377 231.034 260.377ZM258.713 260.377C255.092 260.377 252.039 261.866 249.678 265.009C247.317 268.151 246.202 272.702 246.202 278.676C246.202 284.431 247.34 288.941 249.678 291.994C252.016 295.044 255.048 296.512 258.828 296.512C261.833 296.512 264.323 295.611 266.354 293.732C268.389 291.854 269.863 289.089 270.638 285.394L266.006 284.583C264.675 289.315 262.222 291.639 258.824 291.646C256.66 291.646 254.892 290.727 253.38 288.752C251.868 286.773 251.012 283.838 250.83 279.951H270.749V278.327C270.749 272.483 269.585 268.096 267.273 265.009C264.968 261.922 262.163 260.377 258.713 260.377ZM286.158 260.377C285.076 260.377 284.131 260.743 283.264 261.533C282.396 262.322 281.411 263.96 280.369 266.395V261.066H276.315V295.693H280.833V277.631C280.833 275.111 281.07 272.687 281.644 270.449C281.97 269.167 282.585 268.155 283.382 267.44C284.179 266.725 285.087 266.399 286.047 266.399C287.11 266.399 288.166 266.825 289.289 267.673L290.794 262.23C289.215 260.97 287.67 260.377 286.158 260.377ZM341.511 260.377C337.935 260.377 334.989 261.881 332.71 264.894C330.438 267.903 329.234 272.424 329.234 278.442C329.234 284.412 330.449 288.937 332.71 291.991C334.967 295.041 337.791 296.508 341.278 296.508C344.157 296.508 346.633 295.437 348.689 293.266C350.746 291.094 351.999 287.9 352.51 283.771L348.108 283.075C347.782 286.028 347.011 288.152 345.791 289.56C344.572 290.961 343.105 291.642 341.389 291.642C339.203 291.642 337.342 290.623 335.945 288.515C334.548 286.406 333.863 283.034 333.863 278.324C333.863 273.758 334.6 270.464 336.064 268.363C337.528 266.261 339.392 265.12 341.622 265.12C343.112 265.12 344.383 265.698 345.443 266.858C346.51 268.014 347.218 269.852 347.644 272.187L352.047 271.261C351.517 267.614 350.346 264.861 348.456 263.037C346.566 261.21 344.272 260.377 341.511 260.377ZM367.337 260.377C363.716 260.377 360.663 261.866 358.302 265.009C355.942 268.151 354.826 272.702 354.826 278.676C354.826 284.431 355.964 288.941 358.302 291.994C360.644 295.044 363.672 296.512 367.452 296.512C370.45 296.512 372.944 295.611 374.978 293.732C377.009 291.854 378.484 289.089 379.262 285.394L374.63 284.583C373.3 289.315 370.954 291.639 367.567 291.646C365.403 291.646 363.52 290.727 362.008 288.752C360.496 286.773 359.644 283.838 359.458 279.951H379.377V278.327C379.377 272.483 378.214 268.096 375.901 265.009C373.603 261.922 370.791 260.377 367.337 260.377ZM394.089 260.377C390.939 260.377 388.453 261.307 386.678 263.156C384.899 265.001 384.013 267.384 384.013 270.338C384.013 272.054 384.284 273.503 384.94 274.855C385.592 276.204 386.533 277.294 387.719 278.098C388.897 278.902 391.273 279.958 394.782 281.107C397.206 281.889 398.781 282.556 399.414 283.075C400.333 283.834 400.804 284.831 400.804 286.202C400.804 287.788 400.256 289.111 399.181 290.138C398.114 291.172 396.62 291.642 394.664 291.642C392.703 291.642 391.095 291.094 389.916 289.904C388.738 288.715 387.978 286.906 387.715 284.461L383.198 285.387C384.217 292.817 387.915 296.508 394.315 296.504C397.728 296.504 400.448 295.537 402.423 293.495C404.399 291.453 405.433 288.696 405.433 285.387C405.433 283.601 405.118 282.052 404.506 280.755C403.895 279.458 402.942 278.498 401.842 277.746C400.745 276.997 398.403 275.997 394.66 274.737C391.94 273.784 390.231 273.088 389.679 272.654C388.756 271.92 388.29 270.92 388.29 269.645C388.29 268.34 388.834 267.236 389.794 266.402C390.754 265.568 392.24 265.127 394.197 265.127C397.65 265.127 399.581 267.025 399.985 270.801L404.388 270.104C404.08 267.714 403.565 265.828 402.764 264.546C401.914 263.204 400.712 262.122 399.288 261.418C397.802 260.658 396.068 260.377 394.089 260.377ZM290.79 261.07L300.866 295.697H305.15L315.226 261.07H310.594L304.687 282.263C303.972 284.824 303.342 287.036 302.949 288.863C302.456 286.562 301.985 284.146 301.326 281.8L295.537 261.07H290.79ZM319.162 261.07V295.697H323.679V261.07H319.162ZM170.7 261.533C167.117 261.533 164.233 263.141 161.899 266.28C159.56 269.422 158.308 273.973 158.308 279.947C158.308 285.702 159.464 290.097 161.784 293.147C164.104 296.197 167.191 297.779 170.934 297.779C173.906 297.779 176.333 296.764 178.345 294.885C180.354 293.006 181.743 290.242 182.514 286.547L177.997 285.85C176.681 290.583 174.291 292.906 170.934 292.914C168.788 292.914 166.987 291.994 165.49 290.019C163.993 288.04 163.122 285.105 162.94 281.218H182.625L182.74 279.595C182.74 273.751 181.554 269.248 179.264 266.161C176.974 263.074 174.113 261.533 170.7 261.533ZM119.86 262.344L127.969 296.971H132.716L138.045 270.334L138.971 276.241L143.255 296.971H147.887L156.11 262.344H151.826L147.309 282.378L145.805 289.093L144.415 282.378L140.479 262.344H135.847L131.678 282.611L130.288 289.793L128.665 282.382L124.496 262.348L119.86 262.344ZM408.101 262.693V264.316H412.503V275.896H414.241V264.316H418.644V262.693H408.101ZM420.378 262.693V275.893H422.001V264.661L425.822 275.893H427.445L431.266 264.89V275.893H433.004V262.693H430.573L427.445 271.957C427.13 272.884 426.904 273.554 426.748 274.04L426.052 272.072L422.924 262.693H420.378ZM258.594 265.124C260.844 265.124 262.696 266.213 264.153 268.366C265.153 269.841 265.802 272.087 266.006 275.081H251.068C251.208 272.042 252.068 269.697 253.499 267.899C254.929 266.102 256.574 265.124 258.594 265.124ZM367.222 265.124C369.464 265.124 371.324 266.213 372.781 268.366C373.781 269.841 374.43 272.087 374.634 275.081H359.696C359.836 272.042 360.696 269.697 362.127 267.899C363.553 266.109 365.199 265.124 367.222 265.124ZM170.7 266.399C172.924 266.399 174.71 267.488 176.144 269.641C177.133 271.116 177.793 273.362 177.997 276.356H163.288C163.429 273.317 164.182 270.857 165.605 269.059C167.016 267.266 168.695 266.399 170.7 266.399ZM199.42 266.399C201.428 266.399 203.137 267.514 204.515 269.641C205.894 271.772 206.483 275.055 206.483 279.602C206.483 284.031 205.831 287.333 204.401 289.563C202.97 291.794 201.265 292.921 199.42 292.921C198.064 292.921 196.83 292.465 195.714 291.531C194.595 290.597 193.776 289.26 193.165 287.477C192.553 285.695 192.238 282.952 192.238 279.369C192.238 275.148 192.99 271.987 194.439 269.756C195.888 267.525 197.574 266.399 199.42 266.399Z" fill="white"/>
<path d="M54.9495 229.685L37.6954 237.097L53.6748 243.93L72.2037 237.097L54.9495 229.685ZM29.009 238.95L28.4309 272.302L53.6748 283.419V248.792L29.009 238.95ZM80.8901 238.95L58.0772 247.636V280.292L80.8901 271.027V238.95ZM108.105 135.187L90.7327 142.599L106.831 149.433L125.36 142.599L108.105 135.187ZM84.0178 145.034V178.386L105.556 184.641L106.253 154.298L84.0178 145.034ZM132.193 146.887L111.811 155.573V188.347L132.193 179.083V146.887ZM26.5187 182.129L9.26449 189.54L25.2439 196.374L43.7729 189.54L26.5187 182.129ZM0.578104 191.393L0 224.745L25.2439 235.863V201.236L0.578104 191.393ZM52.4592 191.393L29.6464 200.08V232.735L52.4592 223.471V191.393ZM82.1056 180.898L64.8514 188.31L80.8308 195.144L99.3598 188.31L82.1056 180.898ZM56.165 190.163L55.5869 223.515L80.8308 234.632V200.009L56.165 190.163ZM108.046 190.163L85.2333 198.849V231.505L108.046 222.24V190.163ZM162.399 135.187L145.145 142.599L161.124 149.433L179.653 142.599L162.399 135.187ZM136.459 144.452L135.88 177.804L161.124 188.921V154.298L136.459 144.452ZM188.34 144.452L165.527 153.138V185.794L188.34 176.529V144.452Z" fill="#F7A80D"/>
</g>
<defs>
<clipPath id="clip0_7401_1077">
<rect width="433" height="433" fill="white"/>
</clipPath>
</defs>
</svg>
